<svg width="474" height="464" fill="none" xmlns="http://www.w3.org/2000/svg"><path d="M474 225.003L294.105 118.716c-11.773-6.822-30.808-6.822-42.581 0L45.112 236.776c-11.773 6.822-11.884 17.825-.11 24.646l260.105 153.709c11.773 6.822 30.808 6.822 42.581 0l126.202-72.178v-117.95h.11z" fill="url(#paint0_linear_139:1541)"/><path d="M395.878 160.857L119.708 1.427c-2.2-1.21-4.401-1.651-6.381-1.32-3.081.55-6.162.99-9.133 1.54 2.091-.33 4.291.11 6.382 1.32l276.17 159.43c6.271 3.631 9.572 12.983 7.482 21.016l-62.496 233.809c-1.43 5.281-4.841 8.582-8.802 9.242 3.081-.44 6.161-.99 9.132-1.43 3.961-.66 7.372-3.961 8.802-9.243l62.496-233.809c2.091-8.032-1.21-17.494-7.482-21.125z" fill="#1E273B"/><path d="M386.747 162.397c6.272 3.631 9.572 12.983 7.482 21.016l-62.496 233.809c-2.09 8.032-8.912 11.553-15.184 7.922L40.379 265.713c-6.271-3.631-9.572-12.983-7.482-21.015l62.386-233.81c2.09-8.031 8.912-11.552 15.184-7.921l276.28 159.43z" fill="#0F1521"/><path d="M331.624 417.222c-1.211 4.621-3.961 7.702-7.262 8.912 3.631-.99 6.711-4.181 8.032-9.022l62.496-233.809c2.09-8.033-1.211-17.385-7.482-21.016L111.238 2.747a11.005 11.005 0 00-5.392-1.43c-.55.11-1.1.22-1.76.33 2.09-.33 4.291.11 6.382 1.32l276.17 159.43c6.271 3.631 9.572 12.983 7.481 21.016l-62.495 233.809zm-7.592 8.911c.11 0 .11 0 .219-.109-.109.109-.109.109-.219.109z" fill="#2C3957"/><path d="M384.656 170.209c2.861 1.651 4.401 5.942 3.411 9.683l-62.496 233.809c-.99 3.631-4.071 5.281-7.041 3.631L42.36 257.901c-2.861-1.65-4.401-6.051-3.411-9.682l62.496-233.81c.99-3.63 4.071-5.28 7.041-3.63l276.17 159.43z" fill="#1E959B"/><path d="M94.843 38.946L38.949 248.219c-.99 3.631.55 8.032 3.41 9.682L318.53 417.332c2.86 1.65 6.051 0 7.041-3.631l56.005-209.273L94.843 38.946z" fill="#fff"/><path d="M380.146 187.153l-276.28-159.43c-2.861-1.65-6.052 0-7.042 3.631l-2.09 7.592 286.622 165.482 1.98-7.592c1.211-3.631-.33-8.032-3.19-9.683z" fill="url(#paint1_linear_139:1541)"/><path d="M366.942 189.354l-4.181-2.421c-.22-.11-.44 0-.55.33-.11.33 0 .66.22.771l4.181 2.42c.22.11.44 0 .55-.33.11-.33 0-.66-.22-.77zm9.903 1.32c-.11-.11-.22-.11-.33 0l-1.541.771-.77-2.201c0-.11-.11-.22-.22-.33-.11-.11-.22-.11-.33 0-.22.11-.33.44-.22.77l.77 2.201-1.54.77c-.22.11-.33.44-.22.77 0 .11.11.22.22.33.11.11.22.11.33 0l1.54-.88.77 2.201c0 .11.11.22.22.33.11.11.22.11.33 0 .22-.11.33-.441.22-.771l-.77-2.2 1.541-.88c.22-.11.33-.441.22-.771-.11.11-.22 0-.22-.11z" fill="#CCDAFF"/><path d="M372.115 206.738L192.549 103.092c-1.32-.77-2.861 0-3.301 1.761l-52.703 197.06c-.44 1.76.22 3.741 1.65 4.511L317.761 410.07c1.32.77 2.861 0 3.301-1.76l52.703-197.06c.44-1.651-.22-3.741-1.65-4.512z" fill="#EDEFF2"/><path d="M171.202 143.142L87.582 94.84c-1.321-.77-2.861 0-3.302 1.76l-6.931 25.967c-.44 1.761.22 3.741 1.65 4.511l83.621 48.302c1.321.771 2.861 0 3.301-1.76l6.932-25.967c.44-1.65-.22-3.63-1.651-4.511z" fill="#353B47"/><path d="M212.464 138.081c-.22-.11-.33-.11-.55-.11-.22 0-.33.11-.44.22l.11-.33v-.11l-.33-.22h-.11l-1.651 6.161v.11l.33.221.11-.11.55-2.091c.11.22.11.44.331.66.11.22.33.33.44.44.33.22.66.22.88.11.33-.11.55-.33.66-.66.11-.22.22-.55.44-1.1.11-.44.22-.88.22-1.21 0-.441-.11-.771-.22-1.101-.11-.44-.44-.77-.77-.88zm.44 2.091c0 .22-.11.44-.11.66-.11.33-.11.55-.22.66-.11.11-.11.22-.22.33-.11.11-.22.22-.44.33-.22 0-.33 0-.55-.11a.859.859 0 01-.44-.44c-.11-.22-.11-.44-.11-.66v-.44c0-.22.11-.44.11-.661.11-.33.11-.55.22-.66.11-.11.11-.22.22-.33.11-.22.22-.33.44-.33.11 0 .33 0 .55.11.22.11.33.33.44.44.11.22.11.44.11.66v.441zm3.302 0c-.33-.22-.66-.22-.99-.11-.331.11-.551.33-.771.66-.11.11-.11.22-.22.44 0 .11-.11.33-.22.66-.11.55-.22.99-.22 1.32 0 .441.11.771.22 1.101.22.33.44.55.77.77.33.22.551.22.881.22.33 0 .55-.11.66-.33v-.11l-.22-.33h-.11c-.11.11-.33.22-.44.33-.22 0-.33 0-.551-.11-.22-.11-.44-.33-.55-.66-.11-.22-.22-.55-.11-.881 0-.11 0-.33.11-.66l2.311 1.321h.11l.11-.33c.11-.221.11-.441.11-.661.11-.55 0-.99-.11-1.43-.11-.66-.33-.99-.77-1.21zm.44 2.53l-1.871-.99c.11-.22.11-.44.22-.55a.86.86 0 01.441-.44c.22-.11.44 0 .66.11.22.11.44.33.55.55.11.22.11.55.11.88-.11 0-.11.22-.11.44zm3.63.55l.22-.44v-.11l-.33-.33c-.22-.11-.44-.11-.55-.11-.22 0-.33.11-.55.33l.11-.55v-.11l-.33-.22-.11.11-1.211 4.401v.11l.33.22h.111l.66-2.64c.11-.33.22-.551.44-.661.22-.11.44-.11.66 0h.11c.11-.11.22 0 .44 0zm2.641.991c-.22-.22-.44-.44-.66-.55-.44-.221-.77-.331-.99-.221-.33.111-.55.331-.55.661a.94.94 0 000 .77l.33.66c.11.22.33.44.55.66l.44.44c.11.11.11.22.22.33.11.11.11.33 0 .44-.11.221-.22.331-.33.441-.22 0-.44 0-.66-.11-.22-.11-.44-.331-.55-.551-.11-.22-.11-.44-.11-.66v-.22l-.33-.22h-.11v.11a.696.696 0 000 .66l.33.661c.22.22.44.44.66.55.44.22.77.33.99.22.33-.11.55-.33.66-.77.11-.331.11-.551 0-.771l-.33-.66c-.11-.22-.33-.44-.55-.66-.22-.33-.44-.55-.55-.66-.11-.22-.11-.33-.11-.55.11-.22.22-.33.33-.44.22 0 .44 0 .66.11.22.11.44.33.55.55.11.22.11.44.11.66v.11l.33.22.11-.11c.11-.22.11-.44 0-.77-.11.11-.22-.11-.44-.33zm2.971 1.54c-.33-.22-.66-.22-.99-.22-.33.11-.55.33-.77.66-.11.22-.22.55-.44.99-.11.441-.22.881-.22 1.211 0 .44.11.88.22 1.21.22.33.44.66.77.88.33.22.66.22.99.22.33-.11.55-.33.77-.66.11-.22.221-.55.441-.99.11-.44.22-.88.22-1.21 0-.441-.11-.771-.22-1.211-.11-.44-.441-.66-.771-.88zm.33 2.861c-.11.44-.22.66-.33.88-.11.22-.33.44-.55.44-.22.11-.44 0-.66-.11-.22-.11-.44-.33-.55-.55-.11-.22-.22-.55-.11-.88 0-.22.11-.55.22-.881.11-.44.22-.66.33-.88.11-.22.33-.44.55-.44.22-.11.44 0 .66.11.22.11.44.33.55.55.111.22.221.55.111.881 0 .22-.111.55-.221.88zm3.631-.55c-.44-.22-.771-.22-1.101 0l.11-.44v-.11l-.33-.221h-.11l-1.21 4.402v.11l.33.22h.11l.77-2.861c.11-.33.22-.55.44-.66.22-.11.441-.11.661.11.22.11.44.33.55.66.11.33.11.66 0 .99l-.77 2.861v.11l.33.22h.11l.77-2.971c.11-.44.11-.88 0-1.32 0-.66-.33-.88-.66-1.1zm3.521 1.98c-.33-.22-.66-.33-.99-.22-.33.11-.55.22-.66.55v.11l.33.22h.11c.11-.22.22-.33.33-.33.22 0 .33 0 .55.11.33.11.441.33.551.66.11.22.11.55 0 .881l-.11.33-.771-.441c-.44-.22-.88-.33-1.21-.22-.33.11-.55.441-.66.881-.11.44-.11.88.11 1.21.11.33.44.66.77.77.22.11.44.22.66.22.22 0 .44 0 .55-.11l-.11.33v.11l.33.22h.11l.771-2.97c.11-.441.11-.881 0-1.321.11-.44-.22-.77-.661-.99zm0 3.631c-.11.33-.22.44-.44.55-.22 0-.55 0-.77-.11-.22-.11-.44-.33-.55-.55-.11-.22-.11-.44 0-.77s.22-.44.44-.55c.22 0 .55 0 .77.22l.771.44-.221.77zm2.86-3.851l-1.651 6.162v.11l.33.22.11-.11 1.651-6.052v-.11l-.44-.22zm3.74 4.071c-.33-.22-.66-.33-.99-.22-.33.11-.55.22-.66.55v.11l.33.22h.11c.11-.22.22-.33.33-.33.22 0 .33 0 .55.11.33.11.44.33.55.66.11.22.11.55 0 .88l-.11.331-.77-.441c-.44-.22-.88-.33-1.21-.22-.33.11-.551.44-.661.881-.11.44-.11.88.11 1.21.111.33.441.66.771.77.22.11.44.22.66.22.22 0 .44 0 .55-.11l-.11.33v.11l.33.22h.11l.77-2.97c.11-.441.11-.881 0-1.321.11-.44-.22-.77-.66-.99zm0 3.631c-.11.33-.22.44-.44.55-.22.11-.55 0-.77-.11-.22-.11-.44-.33-.55-.55-.11-.22-.11-.44 0-.77s.22-.44.44-.55c.22 0 .55 0 .77.22l.77.44-.22.77zm4.511-.33c0-.22-.22-.44-.33-.66-.22-.22-.33-.44-.66-.55-.33-.22-.77-.33-.99-.22-.33.11-.55.33-.55.66a.94.94 0 000 .77l.33.66c.11.22.33.44.55.66l.44.44c.11.11.11.22.22.441v.44c-.11.22-.22.33-.33.44-.22 0-.44 0-.66-.11-.22-.11-.44-.33-.55-.55-.11-.22-.11-.441-.11-.661v-.22l-.331-.22h-.11v.11c-.11.22 0 .44 0 .66l.331.661c.22.22.44.44.66.55.44.22.77.33.99.22.33-.11.55-.33.66-.77.11-.33.11-.55 0-.771l-.33-.66c-.11-.22-.33-.44-.55-.66-.22-.33-.44-.55-.55-.66-.11-.22-.11-.44-.11-.55.11-.22.22-.33.33-.33.22 0 .33 0 .66.11.22.11.44.33.55.55.11.22.11.44.11.66v.11l.33.22.11-.11c-.11-.11 0-.44-.11-.66zm2.971 1.21c-.22-.22-.44-.44-.66-.55-.44-.22-.77-.33-.99-.22-.33.11-.55.33-.55.66a.94.94 0 000 .77l.33.661c.11.22.33.44.55.66l.44.44c.11.11.11.22.22.33 0 .11.11.33 0 .44-.11.22-.22.33-.33.44-.22 0-.44 0-.66-.11-.22-.11-.44-.33-.55-.55-.11-.22-.11-.44-.11-.66v-.22l-.33-.22h-.11v.11c-.11.22-.11.44 0 .66l.33.66c.22.22.44.44.66.55.44.22.77.33.99.22.33-.11.55-.33.66-.77.11-.33.11-.55 0-.77l-.33-.66c-.11-.22-.33-.44-.55-.66-.22-.33-.44-.551-.55-.661-.11-.22-.11-.33-.11-.55.11-.22.22-.33.33-.44.22 0 .44 0 .66.11.22.11.44.33.55.55.11.22.11.44.11.661v.11l.33.22.11-.11c.111-.22.111-.441 0-.771-.22.11-.33-.11-.44-.33zm1.762.88h-.11l-1.21 4.402v.11l.44.22.11-.11 1.1-4.292v-.22l-.33-.11zm.659-.77c.11 0 .22-.11.22-.33v-.44c0-.11-.11-.22-.22-.33-.11-.11-.22-.11-.33 0-.11 0-.22.11-.22.33v.44c0 .11.11.22.22.33.11.11.22.11.33 0zm2.751 2.861c-.22-.22-.33-.44-.66-.55-.33-.22-.771-.33-.991-.22-.33.11-.55.33-.55.66a.94.94 0 000 .77l.33.66c.11.22.33.441.55.661l.441.44c.11.11.11.22.22.33 0 .11.11.33 0 .44-.11.22-.22.33-.33.44-.22.11-.441 0-.661-.11-.22-.11-.44-.33-.55-.55-.11-.22-.11-.44-.11-.66v-.22l-.33-.22h-.11v.11c-.11.22 0 .44 0 .66l.33.66c.22.22.44.44.66.55.44.22.771.33.991.22.33-.11.55-.33.55-.77.11-.33.11-.55 0-.77l-.33-.66c-.11-.22-.33-.441-.55-.661a4.235 4.235 0 00-.551-.66c-.11-.22-.11-.44-.11-.55.11-.22.22-.33.33-.33.221 0 .441 0 .661.11.22.11.44.33.55.55.11.22.11.44.11.66v.11l.33.22h.11c.11-.22.11-.44 0-.77-.11-.11-.22-.33-.33-.55zm3.08 2.091l.11-.33v-.11l-.77-.441.33-.99v-.11l-.33-.22-.11.11-.33.99-.44-.22h-.11l-.11.33v.11l.44.221v.11l-.77 2.86c-.11.44-.11.77 0 1.101.11.22.33.44.66.66.11.11.22.11.22.11h.11l.11-.33v-.11l-.22-.11a.857.857 0 01-.44-.441.701.701 0 010-.66l.66-2.64.99.11zm2.311.77c-.33-.22-.66-.33-.99-.22-.33.11-.55.22-.66.55v.11l.33.33h.11c.11-.22.22-.33.33-.33.22 0 .33 0 .55.11.33.11.44.33.55.66.11.22.11.55 0 .88l-.11.33-.77-.44c-.44-.22-.88-.33-1.21-.22-.331.11-.551.44-.661.88-.11.44-.11.881.11 1.211.22.33.441.66.771.77.22.11.44.22.66.22.22 0 .44 0 .55-.11l-.11.33v.11l.33.22h.11l.77-2.971c.11-.44.11-.88-.11-1.32.11-.55-.11-.88-.55-1.1zm0 3.631c-.11.33-.22.44-.44.55-.22 0-.55 0-.77-.11-.22-.11-.44-.33-.55-.55-.11-.221-.11-.441 0-.771s.22-.44.44-.55c.22 0 .55 0 .77.22l.77.44-.22.771zm3.851-1.321c-.44-.22-.77-.22-1.1 0l.11-.44v-.11l-.33-.22h-.11l-1.21 4.401v.11l.33.22h.11l.77-2.86c.11-.331.22-.551.44-.661.22-.11.44-.11.66.11.22.11.44.331.55.661.11.33.11.66 0 .99l-.77 2.861v.11l.33.22h.11l.77-2.971c.11-.44.11-.88 0-1.32-.11-.661-.33-.991-.66-1.101zm3.74 2.201l-.77-.44.33-.99v-.111l-.33-.22h-.11l-.33.991-.44-.22-.11.11-.11.33v.11l.44.22-.77 2.861c-.11.44-.11.77 0 1.1.11.22.33.44.66.66.11.11.22.11.22.11h.11l.11-.33v-.11l-.22-.11a.859.859 0 01-.44-.44.701.701 0 010-.66l.66-2.641.77.44.11-.11.11-.33.11-.22zm-51.492-37.08v-.22c0-.22 0-.44-.11-.66-.11-.22-.33-.44-.55-.55-.22-.11-.44-.11-.55-.11-.22.11-.33.22-.44.33-.11.11-.22.33-.22.66-.11.33-.11.55-.11.771 0 .22 0 .55.11.77.11.22.22.44.44.55.22.11.44.11.66.11.22 0 .33-.11.44-.33v-.22l-.22-.22h-.11c-.11.11-.22.22-.33.22-.11 0-.22 0-.44-.11l-.33-.33c-.11-.11-.11-.33-.11-.551 0-.11 0-.33.11-.55.11-.22.11-.44.22-.55l.33-.33c.11 0 .22 0 .44.11l.33.33c.11.11.11.33.11.44v.22l.33.22zm.331 2.421l.33.33c.221.11.441.11.661 0l-.11.22v.11l.22.11h.11l.77-2.75v-.11l-.22-.11h-.11l-.44 1.76c0 .22-.11.33-.33.44-.11.11-.33.11-.441 0-.11-.11-.22-.22-.33-.44-.11-.22-.11-.33 0-.55l.441-1.761v-.11l-.221-.11h-.11l-.55 1.871c0 .22-.11.33 0 .55.22.22.22.33.33.55zm2.31 1.32c.11.11.22.221.44.331.22.11.44.22.66.11.22-.11.33-.22.33-.441V135c0-.11-.11-.33-.22-.44-.11-.11-.22-.22-.33-.44-.22-.22-.33-.33-.33-.44-.11-.11-.11-.22 0-.33 0-.11.11-.22.22-.22s.22 0 .44.11c.11.11.33.22.33.33.11.11.11.33 0 .44v.11l.22.11h.11v-.44c0-.11-.11-.33-.22-.44-.11-.11-.22-.22-.44-.33-.22-.11-.44-.22-.66-.11-.22.11-.33.22-.33.44v.44c0 .11.11.33.22.44.11.11.22.22.33.44.11.11.22.22.22.33l.11.22v.22c0 .11-.11.221-.22.221s-.22 0-.44-.111l-.33-.33c-.11-.11-.11-.33-.11-.44v-.11l-.22-.11h-.11v.55c.11 0 .22.11.33.33zm2.531 1.541l.11.11h.11l.11-.22v-.11l-.11-.11c-.11-.11-.22-.22-.22-.33v-.44l.44-1.651.44.33h.11l.11-.22v-.11l-.44-.33.22-.66v-.11l-.22-.11h-.11l-.22.66-.22-.11h-.11l-.11.22v.11l.22.11-.44 1.761c-.11.22-.11.44 0 .66 0 .22.11.44.33.55zm1.1.44c.11.22.33.44.441.55.22.11.44.11.55.11.22 0 .33-.22.44-.44.11-.11.11-.33.22-.66s.11-.55.11-.77c0-.221 0-.551-.11-.771-.11-.22-.22-.33-.44-.55-.22-.11-.44-.11-.55-.11-.22 0-.331.22-.441.44-.11.11-.11.33-.22.66-.11.331-.11.551-.11.771 0 .33 0 .55.11.77zm.33-1.321c.111-.22.111-.44.221-.55l.33-.33c.11 0 .22 0 .44.11l.33.33c.11.11.11.33.11.551 0 .11 0 .33-.11.55-.11.22-.11.44-.22.55l-.33.33c-.11 0-.22 0-.44-.11l-.331-.33c-.11-.11-.11-.33-.11-.55 0-.11 0-.33.11-.551zm3.191.661c.11.11.22.22.33.44.11.22.11.33 0 .55l-.44 1.76v.11l.22.11h.11l.44-1.76c0-.22.11-.33.22-.44.11-.11.22 0 .44 0 .11.11.22.22.33.44.11.22.11.33 0 .55l-.44 1.761v.11l.22.11h.11l.55-1.871c.11-.33.11-.55 0-.77-.11-.22-.22-.44-.44-.55-.11-.11-.33-.11-.44-.11-.11 0-.22.11-.33.22 0-.22-.11-.33-.11-.44l-.33-.33c-.11-.11-.22-.11-.33-.11-.11 0-.22 0-.33.11l.11-.22v-.11l-.22-.11h-.111l-.77 2.75v.11l.22.11h.11l.44-1.76c0-.22.111-.33.221-.44 0-.33.11-.33.22-.22zm2.971 4.621c.22.11.33.11.55.11.22 0 .33-.11.441-.22v-.11l-.111-.22h-.11c-.11.11-.22.11-.33.22-.11 0-.22 0-.33-.11-.11-.11-.33-.22-.33-.33-.11-.11-.11-.33-.11-.55 0-.11 0-.22.11-.44l1.431.77h.11v-.22c0-.11.11-.33.11-.44 0-.331 0-.661-.11-.881-.11-.22-.33-.44-.551-.66-.22-.11-.44-.11-.55-.11-.22.11-.33.22-.44.44 0 .11-.11.11-.11.22s-.11.22-.11.33c-.11.33-.11.661-.11.771 0 .22.11.44.11.66.11.44.22.66.44.77zm0-2.421l.33-.33c.11 0 .22 0 .44.11l.331.33c.11.11.11.33.11.551 0 .11 0 .22-.11.33l-1.101-.661c-.11-.11 0-.22 0-.33zm1.759 3.411l.551-1.65c0-.22.11-.33.33-.44.11-.11.33-.11.44 0h.11l.11.11h.11l.11-.22v-.11l-.22-.221c-.11-.11-.22-.11-.33-.11-.11 0-.22.11-.33.221l.11-.331v-.11l-.22-.11h-.11l-.771 2.751v.11l.11.11zm2.972 1.651c.22.11.44.22.66.11.22-.11.33-.22.33-.44v-.44c0-.11-.11-.331-.22-.441-.11-.11-.22-.22-.33-.44-.22-.22-.33-.33-.33-.44-.11-.11-.11-.22 0-.33 0-.11.11-.22.22-.22s.22 0 .44.11c.11.11.33.22.33.33.11.11.11.33 0 .44v.11l.22.11h.11v-.44c0-.11-.11-.33-.22-.44-.11-.11-.22-.22-.44-.33-.22-.11-.44-.22-.66-.11-.22.11-.33.22-.33.44v.44c0 .11.11.33.22.44.11.11.22.22.33.44.11.11.22.221.22.331l.11.22v.22c0 .11-.11.22-.22.22s-.22 0-.44-.11l-.33-.33c-.11-.11-.11-.33-.11-.44v-.111l-.22-.11h-.11v.551c0 .11.11.33.22.44.22 0 .33.22.55.22zm1.76.99l.33.33c.22.11.55.11.66 0l-.11.22v.11l.221.11h.11l.77-2.751v-.11l-.22-.11h-.11l-.44 1.761c0 .22-.111.33-.331.44-.11.11-.33.11-.44 0-.11-.11-.22-.22-.33-.44-.11-.22-.11-.33 0-.55l.44-1.761v-.11l-.22-.11h-.11l-.55 1.871c0 .22-.11.33 0 .55.11.22.22.33.33.55zm4.07-.66a.859.859 0 00-.44-.44c-.11-.11-.22-.111-.33-.111-.11 0-.22.001-.33.111l.11-.221v-.11l-.22-.11h-.11l-.99 3.851v.11l.22.11h.11l.33-1.32c0 .11.11.22.22.33l.33.33c.22.11.44.11.55.11.22 0 .33-.22.44-.44.11-.11.221-.33.221-.66.11-.33.11-.55.11-.77 0-.33-.11-.55-.221-.77zm-.22.88c0 .11 0 .22-.11.44 0 .22-.11.33-.11.44 0 .11-.11.22-.11.22-.11.11-.11.22-.22.22s-.22 0-.33-.11c-.11-.11-.22-.11-.22-.33-.11-.11-.11-.22-.11-.44v-.33c0-.11 0-.22.11-.44 0-.22.11-.33.11-.44 0-.11.11-.22.11-.22.11-.11.11-.22.22-.22h.33l.33.33c.11.11.11.22.11.44-.11.22-.11.33-.11.44zm.551 3.631l.33-1.321c0 .11.11.22.22.44.11.111.22.221.33.221.22.11.44.11.55.11.22 0 .33-.22.44-.441.11-.11.11-.33.22-.66s.11-.55.11-.77c0-.22 0-.55-.11-.66a.859.859 0 00-.44-.44c-.11-.11-.22-.11-.33-.11-.11 0-.22 0-.33.11l.11-.22v-.11l-.22-.11h-.11l-.99 3.851v.11h.22zm.55-2.091c0-.11 0-.22.11-.44 0-.22.11-.33.11-.44 0-.11.11-.22.11-.22.11-.11.11-.22.22-.22h.33l.33.33c.11.11.11.22.11.44v.33c0 .11 0 .22-.11.44 0 .22-.11.33-.11.44 0 .11-.11.22-.11.22-.11.11-.11.22-.22.22s-.22 0-.33-.11c-.11-.11-.22-.11-.22-.33-.11-.11-.11-.22-.11-.44-.11 0-.11-.11-.11-.22zm2.641 2.751c.22.11.44.11.55.11.22 0 .33-.22.441-.44.11-.11.22-.33.22-.66.11-.33.11-.55.11-.77 0-.221 0-.551-.11-.771-.11-.22-.22-.33-.441-.55-.22-.11-.44-.22-.55-.11-.22 0-.33.22-.44.44-.11.11-.22.33-.22.66-.11.331-.11.551-.11.771 0 .33 0 .55.11.77 0 .22.22.44.44.55zm-.22-1.87c.11-.221.11-.441.22-.551l.33-.33c.11 0 .22 0 .44.11l.331.33c.11.11.11.33.11.551 0 .11 0 .33-.11.55-.11.22-.11.44-.221.55l-.33.33c-.11 0-.22 0-.44-.11l-.33-.33c-.11-.11-.11-.33-.11-.55 0-.11 0-.22.11-.55zm1.981 2.86l.55-1.65c.111-.22.11-.33.331-.44.11-.11.33-.11.44 0l.22.11h.11l.11-.22v-.11c0-.11-.11-.11-.22-.22s-.22-.11-.33-.11c-.11 0-.22.11-.33.22l.11-.33v-.11l-.22-.11h-.111l-.77 2.75v.11l.11.11zm2.201 1.211l.11.11h.11l.11-.22v-.111l-.11-.11c-.11-.11-.22-.22-.22-.33v-.44l.44-1.65.551.33h.11l.11-.22v-.11l-.55-.33.22-.66v-.11l-.22-.11h-.111l-.22.66-.22-.11h-.11l-.11.22v.11l.22.11-.44 1.76c-.11.22-.11.44 0 .66 0 .33.11.441.33.551z" fill="#000"/><path d="M201.35 119.376c-4.181-2.42-8.802 0-10.232 5.392-1.431 5.391.77 11.773 5.061 14.193 4.181 2.421 8.802 0 10.233-5.391 1.43-5.391-.881-11.663-5.062-14.194z" fill="#1E959B"/><path d="M202.67 126.748l-5.722-3.301c-.77-.44-1.65 0-1.87.991l-1.21 4.511c-.22.99.11 2.09.88 2.53l2.751 1.541-.33 1.43c0 .11 0 .33.11.44l.11.11c.11 0 .11.11.22 0l1.98-.88.99.55c.771.44 1.651 0 1.871-.99l1.21-4.511c.22-.77-.22-1.981-.99-2.421zm.33 2.201l-1.21 4.511c-.11.55-.66.77-.991.55l-1.1-.66h-.22l-1.43.55.22-.88c.11-.22 0-.44-.22-.55l-3.081-1.761c-.44-.22-.66-.88-.55-1.43l1.21-4.511c.11-.55.66-.771.99-.55l5.722 3.3c.55.33.77.881.66 1.431z" fill="#fff"/><path d="M196.841 128.179c-.33-.11-.55 0-.66.33-.11.33 0 .77.33.88.22.11.55 0 .66-.33.11-.22 0-.66-.33-.88zm1.869 1.1c-.22-.11-.55 0-.66.33-.11.33.11.77.33.88.22.11.55 0 .66-.33.11-.33-.11-.77-.33-.88zm1.76 1.1c-.22-.11-.55 0-.66.33-.11.33 0 .77.33.88.33.11.55 0 .66-.33.11-.33 0-.77-.33-.88z" fill="#fff"/><path d="M350.439 215.211c-.55-.33-1.21 0-1.32.77-.22.77.11 1.54.66 1.87.55.33 1.21 0 1.32-.77.22-.66-.11-1.54-.66-1.87zm4.95 2.97c-.55-.33-1.21 0-1.32.771-.22.77.11 1.54.66 1.87.55.33 1.21 0 1.32-.77.221-.77 0-1.541-.66-1.871zm5.064 2.861c-.55-.33-1.211 0-1.321.77-.22.771.11 1.541.661 1.871.55.33 1.21 0 1.32-.77.22-.661-.11-1.541-.66-1.871z" fill="#000"/><path d="M359.571 240.407L186.167 140.281l-.11.441 173.404 100.125.11-.44z" fill="#D0D8EB"/><path d="M270.889 202.007l-81.641-47.092c-2.971-1.65-6.162 0-7.152 3.741l-8.472 31.578 87.032 50.173c2.971 1.65 6.162 0 7.152-3.741l6.602-24.756c.99-3.741-.661-8.252-3.521-9.903z" fill="#1E959B"/><path d="M186.936 174.5l.66-2.31 1.871 1.1-.55 2.31v.11l.33.22.11-.11 1.32-5.061v-.11l-.33-.22-.11.11-.55 2.201-.11.11-1.871-1.101v-.11l.661-2.2-.11-.11-.221-.22h-.11l-1.43 5.171.11.11.33.11zm3.521 2.091l.22.11h.11l.99-3.631v-.11l-.33-.22-.11.11-.99 3.631.11.11zm1.32-4.401h.22c.11 0 .11-.11.22-.22v-.331c0-.11-.11-.22-.22-.22s-.22-.11-.22 0c-.11 0-.11.11-.22.22v.331l.22.22zm-.22 5.721l.11.11h.22l.77-1.43v-.11l-.33-.11-.77 1.43v.11zm5.722-2.971l1.1.77.11-.11.11-.33-.11-.11-2.75-1.54-.11.33v.11l1.1.66-1.21 4.731v.11l.33.22.11-.11 1.21-4.621.11-.11zm2.641 3.191c.22.11.33.33.44.55.11.22.11.55 0 .77l-.66 2.421v.11l.33.22h.11l.66-2.531c.11-.44.11-.77 0-1.1-.11-.33-.33-.55-.66-.77-.33-.22-.66-.22-.88 0l.44-1.76v-.11l-.33-.221h-.11l-1.321 5.172v.11l.331.22h.11l.66-2.421c.11-.33.22-.44.33-.55.11-.22.33-.22.55-.11zm1.87 5.171c.22.11.33.22.551.22.22 0 .33 0 .44-.11l-.11.33v.111l.33.22h.11l.66-2.531c.11-.33.11-.77 0-1.1-.11-.33-.33-.661-.77-.771-.33-.22-.55-.22-.881-.22-.22.11-.44.22-.55.441v.11l.33.22h.11c.11-.11.22-.22.331-.22.11 0 .33 0 .44.11.22.11.44.33.44.55.11.22.11.44 0 .66l-.11.33-.66-.44c-.331-.22-.661-.33-.991-.22-.33.11-.44.33-.55.66-.11.33-.11.66.11.99.33.22.55.44.77.66zm-.22-1.54c.11-.22.22-.33.44-.44.221 0 .441 0 .661.11l.66.33-.11.55c-.11.22-.22.44-.44.44s-.44 0-.661-.11a.859.859 0 01-.44-.44c-.11 0-.22-.22-.11-.44zm3.96-.11c.22-.11.33-.11.55 0 .22.11.33.33.44.55.11.22.11.55 0 .77l-.66 2.421v.11l.33.22h.11l.66-2.531c.11-.44.11-.77 0-1.1-.11-.33-.33-.55-.66-.77-.33-.22-.66-.22-.88 0l.11-.33v-.11l-.33-.22h-.11l-.99 3.631v.11l.33.22h.11l.66-2.421c0-.22.11-.44.33-.55zm4.073 5.941l-.22-3.08.99-.66v-.111l-.33-.22h-.11l-1.651.991v-.11l.77-3.081v-.11l-.33-.11h-.11l-1.32 5.171v.11l.33.11h.11l.33-1.32.88-.55v.11l.22 2.64.331.22h.11zm1.319 2.531c.22.11.44.22.55.22.11 0 .22 0 .44-.11.11-.11.33-.33.44-.55l2.201-3.411v-.11l-.33-.22h-.11l-1.541 2.641v-3.631l-.33-.22h-.11v4.291c-.11.22-.33.44-.33.55-.11.11-.22.11-.33.11-.11 0-.22 0-.33-.11h-.11l-.11.33v.22zm3.301-.88c0 .33.11.66.22.99.11.33.33.55.66.66.33.22.55.22.77.11.22-.11.44-.22.66-.55.11-.22.22-.44.33-.88.11-.44.22-.77.11-.99 0-.33-.11-.66-.22-.991a.992.992 0 00-.66-.66c-.33-.22-.55-.22-.77-.11-.22.11-.44.22-.66.55-.11.22-.22.441-.33.881 0 .33-.11.66-.11.99zm.55-.77c.11-.33.22-.55.22-.771.11-.22.22-.33.44-.33.22-.11.33 0 .55.11.22.11.33.22.44.441.11.22.11.44.11.66 0 .22-.11.44-.11.77-.11.33-.22.55-.22.77-.11.22-.22.33-.44.44-.22 0-.33 0-.55-.11a.859.859 0 01-.44-.44c-.11-.22-.11-.44-.11-.66 0-.22.11-.55.11-.88zm5.282.88l-.771 2.421c-.11.33-.22.44-.33.55-.22.11-.33.11-.55-.11-.22-.11-.33-.33-.44-.55a.942.942 0 010-.771l.66-2.42v-.11l-.33-.22h-.11l-.66 2.53c-.11.22-.11.55 0 .771 0 .22.11.44.22.66.11.22.33.33.44.44.33.22.66.22.88 0l-.11.33v.11l.33.22h.11l.991-3.631v-.11l-.33-.11zm1.759 5.391l.331.22h.11l.88-3.19.66.33h.11l.11-.33v-.11l-.66-.331v-.11c.11-.33.22-.44.33-.55.11-.11.33 0 .44.11l.11.11h.11l.11-.33v-.11l-.22-.11c-.22-.11-.44-.22-.66-.22-.11 0-.33.11-.44.22-.11.11-.22.33-.33.66v.22l-.44-.22h-.11l-.11.33v.11l.44.221-.771 3.08zm1.981-1.1c-.11.44-.11.66-.22.99 0 .33.11.66.22.99.11.331.33.551.66.661.331.11.551.22.771.11.22-.11.44-.22.66-.55.11-.221.22-.441.33-.881.11-.44.11-.77.22-.99 0-.33-.11-.66-.22-.99a.992.992 0 00-.66-.66c-.33-.22-.55-.22-.77-.11-.221.11-.441.22-.661.55-.11.22-.22.55-.33.88zm.66-.44c.11-.22.22-.33.441-.33.22 0 .33 0 .55.11.22.11.33.22.44.44.11.22.11.44.11.66 0 .22-.11.44-.11.77-.11.33-.22.55-.22.77a.857.857 0 01-.44.441c-.22 0-.33 0-.551-.11a.86.86 0 01-.44-.441c-.11-.22-.11-.44-.11-.66 0-.22.11-.44.11-.77 0-.55.11-.77.22-.88zm3.522 1.65c.22-.11.33-.11.55 0h.11c.11 0 .22.11.22.22h.11l.22-.33v-.11l-.33-.33c-.11-.11-.33-.11-.44-.11-.11 0-.33.11-.44.22l.11-.44v-.11l-.33-.22h-.111l-.99 3.631v.11l.33.22h.11l.55-2.201c0-.22.111-.44.331-.55zm4.4 4.951l.11-.11v-.11l-.22-.22h-.11c-.11.22-.22.33-.44.33s-.33 0-.55-.11a.859.859 0 01-.44-.44c-.11-.22-.11-.44-.11-.66 0-.22.11-.44.11-.77.11-.33.22-.55.22-.77.11-.22.22-.33.44-.33s.33 0 .55.11c.22.11.33.22.44.44.11.22.11.44.11.66v.22l.33.11h.11v-.22c0-.33-.11-.66-.22-.88a.992.992 0 00-.66-.66c-.33-.11-.55-.22-.77-.11-.22.11-.44.22-.66.55-.11.22-.221.55-.331.88-.11.44-.22.77-.22.99 0 .33.11.66.22.99.11.331.331.551.661.661.33.22.55.22.77.22.33-.33.55-.55.66-.771zm2.751-1.87c-.33-.22-.55-.22-.77-.11-.22.11-.44.22-.66.55-.11.22-.22.44-.33.88-.11.44-.11.66-.11.991 0 .33.11.66.22.99.11.33.33.55.66.66.33.22.55.22.77.11.22-.11.44-.22.66-.55.11-.22.22-.44.33-.88.111-.44.111-.771.111-.991 0-.33-.111-.66-.221-.99-.22-.22-.33-.55-.66-.66zm.22 2.421c-.11.33-.22.55-.22.77-.11.22-.22.33-.44.44-.22 0-.33 0-.55-.11a.859.859 0 01-.44-.44c-.11-.22-.11-.44-.11-.66 0-.22.11-.441.11-.771.11-.33.22-.55.22-.77.11-.22.22-.33.44-.33.22-.11.33 0 .55.11.22.11.33.22.44.44.11.22.11.44.11.66.11.11 0 .33-.11.661zm3.081-.55c-.33-.221-.66-.221-.88 0l.11-.331v-.11l-.33-.22h-.11l-.99 3.631v.11l.33.22h.11l.66-2.42c.11-.33.22-.44.33-.55.22-.11.33-.11.55 0 .22.11.33.33.44.55.11.22.11.55 0 .77l-.66 2.421v.11l.33.22h.11l.66-2.531c.11-.44.11-.77 0-1.1-.11-.33-.33-.55-.66-.77zm3.191 2.31l.11-.33v-.11l-.771-.33.221-.88v-.11l-.331-.22h-.11l-.22.88-.33-.22h-.11l-.11.33v.11l.33.22-.66 2.421c-.11.33-.11.66 0 .88.11.22.33.44.55.55.11.11.22.11.22.11h.11l.11-.33v-.11l-.11-.11c-.22-.11-.33-.22-.33-.33-.11-.11 0-.33 0-.55l.55-2.201.881.33zm1.98.66c-.33-.22-.55-.22-.88-.22-.22.11-.44.22-.55.44v.11l.33.22h.11c.11-.11.22-.22.33-.22.11 0 .33 0 .44.11.22.11.44.33.44.551.11.22.11.44 0 .66l-.11.33-.66-.44c-.33-.22-.66-.33-.99-.22-.22.11-.44.33-.55.66-.11.33-.11.66.11.99.11.33.33.55.66.66.22.11.33.22.55.22.22 0 .33 0 .44-.11l-.11.33v.11l.33.22h.11l.66-2.53c.11-.33.11-.77 0-1.101-.11-.22-.33-.55-.66-.77zm-.11 3.081c-.11.22-.22.44-.44.44s-.44 0-.66-.11a.859.859 0 01-.44-.44c-.11-.22-.11-.33 0-.66.11-.22.22-.33.44-.44.22 0 .44 0 .66.11l.66.33-.22.77zm3.192-1.21c-.33-.11-.55-.22-.771-.11-.22.11-.44.22-.66.55-.11.22-.22.55-.33.88-.11.44-.22.77-.22.99 0 .33.11.661.22.991.11.33.33.55.66.66.33.22.551.22.771.22.22-.11.44-.22.55-.44l.11-.11v-.11l-.22-.22h-.11c-.11.22-.22.33-.44.33s-.331 0-.551-.11a.859.859 0 01-.44-.44c-.11-.22-.11-.441-.11-.661 0-.22.11-.44.11-.77.11-.33.22-.55.22-.77.11-.22.22-.33.44-.33.111-.11.331 0 .551.11.22.11.33.33.44.44.11.22.11.44.11.66v.22l.33.11h.11v-.22c0-.33-.11-.66-.22-.88-.11-.66-.33-.88-.55-.99zm3.19 1.87l-.661-.33.22-.88v-.11l-.33-.11h-.11l-.22.88-.33-.22h-.11l-.11.33v.11l.33.22-.66 2.421c-.11.33-.11.66 0 .88.11.22.33.44.55.55.11.11.22.11.22.11h.11l.11-.33v-.11l-.11-.11c-.22-.11-.33-.22-.33-.33-.11-.11 0-.33 0-.55l.55-2.201.661.33h.11l.11-.55zm1.87.99c-.331-.22-.551-.22-.771-.11-.22.11-.44.22-.66.55 0 .11-.11.221-.11.331 0 .11-.11.33-.11.55-.11.44-.22.77-.22 1.1 0 .33.11.66.22.88.11.33.33.55.66.66.22.11.55.22.771.22.22 0 .44-.11.55-.33v-.11l-.22-.33h-.11c-.11.11-.221.22-.441.22-.11 0-.33 0-.44-.11-.22-.11-.44-.33-.44-.55-.11-.22-.11-.44-.11-.66 0-.11 0-.22.11-.55l1.871 1.1h.11l.11-.22c.11-.22.11-.44.11-.55.11-.44 0-.88-.11-1.21-.11-.331-.44-.661-.77-.881zm.33 2.201l-1.541-.88c.11-.22.11-.44.22-.44.11-.22.22-.331.44-.331.11-.11.331 0 .551.111.22.11.33.33.44.44.11.22.11.44.11.66-.11 0-.11.22-.22.44zm3.961-1.32l-.55 1.76c0-.22-.11-.33-.22-.55-.11-.11-.22-.22-.44-.33-.33-.11-.551-.22-.771-.11-.22.11-.44.22-.55.55-.11.22-.22.44-.33.88-.11.44-.22.771-.22.991 0 .33 0 .66.22.99.11.33.33.55.66.66.11.11.33.11.44.11.111 0 .331-.11.441-.11l-.11.33v.11l.33.22h.11l1.32-5.171v-.11l-.33-.22zm-.77 2.75c0 .111-.11.331-.11.551-.11.22-.11.44-.22.55 0 .11-.11.22-.22.33l-.33.33c-.111 0-.331 0-.441-.11-.11-.11-.33-.22-.44-.44-.11-.22-.11-.33-.11-.55v-.44c0-.11.11-.331.11-.551.11-.22.11-.44.22-.55.11-.11.11-.22.22-.33.11-.11.22-.22.33-.22.111 0 .331 0 .441.11l.33.33c.11.22.11.33.11.55.11.22.11.33.11.44zm4.732 1.211l-.77 2.42c-.11.33-.22.441-.33.551-.22.11-.33.11-.55 0-.22-.11-.331-.331-.441-.551a.94.94 0 010-.77l.661-2.42v-.11l-.33-.22h-.11l-.661 2.53a.94.94 0 000 .77c0 .22.11.44.22.661.11.22.331.33.441.44.33.22.66.22.88 0l-.11.33v.11l.33.22h.11l.99-3.631v-.11l-.33-.22zm2.861 1.76c-.111-.22-.331-.33-.551-.44-.33-.22-.66-.22-.88-.11-.22.11-.44.22-.55.55-.11.22-.11.44 0 .66.11.22.11.33.22.551.11.11.33.33.44.55.11.22.33.33.33.44.11.11.11.22.22.33v.33c0 .22-.11.33-.33.33-.11 0-.33 0-.55-.11a.859.859 0 01-.44-.44c-.11-.22-.11-.33-.11-.55v-.22l-.33-.11h-.11v.66c0 .22.11.44.33.55.11.22.33.33.55.44.33.22.66.22.88.22.22-.11.44-.33.55-.66.11-.22.11-.44 0-.66-.11-.22-.11-.44-.33-.55-.11-.11-.33-.33-.44-.55-.22-.221-.33-.441-.44-.551-.11-.11-.11-.33-.11-.55 0-.22.11-.33.33-.33.11 0 .33 0 .55.11.22.11.33.33.44.44.11.22.11.33.11.55v.11l.331.11h.11c0-.22.11-.44 0-.66l-.22-.44zm1.1 4.071c0-.11-.11-.22-.22-.22-.11-.11-.22-.11-.22 0-.11 0-.11.11-.22.22v.33c0 .11.11.22.22.22.11.11.22.11.22 0 .11 0 .11-.11.22-.22v-.33zm-75.7-38.509l-.33-.221-.11.11-.55 2.201-.11.11-1.871-1.1v-.11l.661-2.201-.11-.11-.22-.22h-.11l-1.431 5.171.11.11.33.22v-.11l.66-2.31 1.871 1.1-.55 2.311v.11l.33.22.11-.11 1.32-5.061v-.11zm1.762 2.64c-.33-.22-.55-.22-.77-.11-.22.11-.44.22-.66.55-.11.22-.22.44-.331.881-.11.44-.11.66-.11.99 0 .33.11.66.221.99.11.33.33.55.66.66.33.22.55.22.77.11.22-.11.44-.22.66-.55.11-.22.22-.44.33-.88.11-.44.11-.77.22-.99 0-.33-.11-.661-.22-.991-.22-.22-.44-.44-.77-.66zm.33 2.421c-.11.33-.22.55-.22.77-.11.22-.22.33-.44.33-.22.11-.33 0-.55-.11a.859.859 0 01-.44-.44c-.11-.22-.11-.44-.11-.66 0-.22.11-.44.11-.77.11-.331.22-.551.22-.771.11-.22.22-.33.44-.44.22-.11.33 0 .55.11.22.11.33.22.44.44.11.22.11.441.11.661 0 .33 0 .55-.11.88zm4.84.66l-1.541 2.641.22-3.411-.11-.11-.22-.11h-.11l-1.43 2.64.11-3.411v-.11l-.33-.11h-.11l-.11 4.181v.11l.33.221.11-.111 1.32-2.42h.11l-.11 3.191v.11l.33.22h.11l1.761-3.191v-.11l-.33-.22zm2.75-.11h-.11l-1.32 5.171v.11l.33.22.11-.11 1.32-5.061v-.11l-.33-.22zm3.301 3.521c-.33-.11-.55-.22-.77-.11-.22.11-.44.22-.66.55-.11.22-.22.55-.33.88-.11.44-.22.77-.22.99 0 .33.11.661.22.991.11.33.33.55.66.66.33.22.55.22.88.11.22-.11.44-.22.55-.44l.11-.11v-.11l-.22-.22h-.11c-.11.22-.22.33-.44.33s-.33 0-.55-.11c-.22-.11-.33-.33-.44-.44-.11-.221-.11-.441-.11-.661 0-.22.11-.44.11-.77.11-.33.22-.55.22-.77.11-.22.22-.33.44-.44.11-.11.33 0 .55.11.22.11.33.33.44.44.11.22.11.44.11.66v.22l.33.11h.111v-.22c0-.33-.111-.66-.221-.88-.11-.33-.33-.55-.66-.77zm2.972 1.76c-.33-.22-.55-.22-.881-.22-.22 0-.44.22-.55.44v.11l.33.22h.11c.11-.11.22-.22.33-.22.111 0 .331 0 .441.11.22.11.44.33.44.55.11.22.11.441 0 .661l-.11.33-.66-.44c-.331-.22-.661-.331-.991-.221-.22.111-.44.331-.55.661-.11.33-.11.66.11.99.11.33.33.55.66.66.22.11.33.22.55.22.221 0 .331 0 .441-.11l-.11.33v.11l.33.22h.11l.66-2.53c.11-.33.11-.771 0-1.101 0-.33-.33-.55-.66-.77zm0 2.971c-.11.22-.22.44-.44.44-.221 0-.441 0-.661-.11a.859.859 0 01-.44-.44c-.11-.22-.11-.33 0-.55.11-.22.22-.33.44-.44.22 0 .44 0 .661.11l.66.33-.22.66zm3.191-1.1c-.33-.22-.66-.22-.88 0l.11-.33v-.111l-.331-.22h-.11l-.99 3.631v.11l.33.22h.11l.66-2.42c.11-.22.221-.44.331-.55.22-.11.33-.11.55 0 .22.11.33.33.44.55.11.22.11.55 0 .77l-.66 2.421v.11l.33.22h.11l.66-2.531c.11-.44.11-.77 0-1.1-.11-.33-.33-.66-.66-.77zm4.4 2.42c-.33-.22-.66-.22-.88 0l.44-1.76v-.11l-.33-.22h-.11l-1.32 5.171v.11l.33.22h.11l.66-2.42c.11-.221.22-.441.33-.551.22-.11.33-.11.55 0 .22.11.33.33.44.551.11.22.11.55 0 .77l-.66 2.42v.11l.33.22h.11l.66-2.53c.11-.44.11-.77 0-1.1a1.709 1.709 0 00-.66-.881zm2.972 1.761c-.33-.22-.55-.22-.77-.11-.22.11-.441.22-.661.55 0 .11-.11.22-.11.33 0 .11-.11.33-.11.55-.11.44-.22.77-.22 1.1 0 .33.11.661.22.881.11.22.33.44.661.66.22.11.55.22.77.22.22 0 .44-.11.55-.33v-.11l-.22-.33h-.11c-.11.11-.22.22-.44.22-.11 0-.33 0-.44-.11-.22-.11-.441-.33-.441-.55-.11-.221-.11-.441-.11-.661 0-.11 0-.22.11-.55l1.871 1.1h.11l.11-.22c0-.22.11-.44.11-.55.11-.44 0-.88-.11-1.21-.11-.33-.33-.66-.77-.88zm.33 2.2l-1.541-.88c.111-.22.111-.44.221-.44.11-.22.22-.33.44-.33.11-.11.33 0 .55.11.22.11.33.33.44.44.11.22.11.44.11.66-.11 0-.11.22-.22.44zm2.529-2.2l-.33-.22-.11.11-1.32 5.061v.11l.33.22 1.43-5.171v-.11zm1.76 2.75c-.11-.11-.33-.11-.44-.11-.11 0-.33.11-.44.11l.11-.33v-.11l-.33-.22h-.11l-1.321 5.172v.11l.33.22h.11l.441-1.761c0 .22.11.33.22.55.11.11.22.22.44.33.33.11.55.221.77.11.22-.11.44-.22.55-.55.11-.22.22-.44.33-.88.11-.44.11-.77.22-.99 0-.33 0-.66-.22-.99a.993.993 0 00-.66-.661zm.33 1.761c0 .11 0 .33-.11.55-.11.22-.11.44-.22.55-.11.11-.11.22-.22.33-.11.11-.22.22-.33.22-.11 0-.33 0-.44-.11l-.33-.33c-.11-.22-.11-.33-.11-.55v-.44c0-.11.11-.33.11-.55.11-.22.11-.44.22-.55 0-.11.11-.22.22-.33l.33-.33c.11 0 .33 0 .44.11.22.11.33.22.44.44.11.22.11.33.11.55 0 .22 0 .33-.11.44zm4.953 1.32l-.33-.22h-.11l-1.541 2.641.11-3.521-.11-.11-.33-.22h-.11v4.291c-.11.22-.22.44-.33.55-.11.11-.22.22-.33.22-.11 0-.22 0-.33-.11h-.11l-.11.33v.11c.22.11.44.22.55.22.11 0 .33 0 .44-.11.11-.11.33-.33.44-.55l2.201-3.411v-.11zm1.76.88c-.331-.22-.551-.22-.771-.11-.22.11-.44.22-.66.55-.11.22-.22.441-.33.881-.11.44-.11.66-.22.99 0 .33.11.66.22.99.11.33.33.55.66.66.33.11.55.22.77.11.221-.11.441-.22.661-.55.11-.22.22-.44.33-.88.11-.44.11-.77.22-.99 0-.33-.11-.66-.22-.991-.22-.22-.44-.55-.66-.66zm.22 2.421c-.11.33-.22.55-.22.77-.11.22-.22.33-.441.33-.22.11-.33 0-.55-.11-.22-.11-.33-.33-.44-.55-.11-.22-.11-.44-.11-.66 0-.22.11-.44.11-.77.11-.33.22-.55.22-.771.11-.22.22-.33.44-.44.22 0 .33 0 .551.11.22.11.33.22.44.441.11.22.11.44.11.66 0 .44 0 .66-.11.99zm3.631-.11l-.77 2.421c-.11.22-.22.44-.33.55-.22.11-.33.11-.55 0-.22-.11-.331-.33-.441-.55a.942.942 0 010-.771l.661-2.42v-.11l-.33-.22h-.11l-.661 2.53a.94.94 0 000 .77c0 .22.11.441.22.661.11.22.33.33.441.44.33.22.66.22.88 0l-.11.33v.11l.33.22h.11l.99-3.631v-.11l-.33-.22zm2.64-.22c-.33-.22-.66-.22-.88-.11-.22.11-.44.44-.55.77l-.11.22v.11l.33.22h.11l.11-.22c.11-.22.22-.44.33-.44.22-.11.33-.11.55.11.22.11.33.33.44.55.11.22.11.44 0 .66 0 .111-.11.331-.22.331l-.22.22c-.11 0-.22.11-.33.11-.22.11-.33.11-.55.22-.11.11-.22.22-.22.44l-.11.44v.11l.33.22h.11l.11-.44c0-.11.11-.22.22-.33.11-.11.22-.11.44-.11.11-.11.33-.11.44-.22.11-.11.22-.11.33-.33a.84.84 0 00.22-.55c.11-.441.11-.771 0-1.101-.33-.44-.55-.66-.88-.88zm-1.32 4.401c-.11-.11-.22-.11-.22 0-.11 0-.11.11-.22.22v.33c0 .11.11.22.22.22s.22.11.22 0c.11 0 .11-.11.22-.22v-.33c-.11-.11-.11-.22-.22-.22z" fill="#FBFBFB"/><path d="M339.765 297.622l-58.864-33.999c-2.971-1.65-6.162 0-7.152 3.741l-6.602 24.756c-.99 3.741.55 8.142 3.521 9.903l64.256 37.079 8.472-31.578c.881-3.741-.66-8.252-3.631-9.902z" fill="#7D9CF0"/><path d="M280.791 293.11c-.22-.11-.55-.22-.77-.11-.22.11-.33.33-.44.66a1.53 1.53 0 000 .991c.11.33.33.55.55.77.22.11.55.11.77 0 .22-.11.44-.33.44-.66.11-.33.11-.66 0-.991-.11-.33-.33-.55-.55-.66zm4.512 2.641c-.22-.11-.551-.22-.771-.11-.22.11-.44.33-.44.66-.11.33-.11.66 0 .991.11.33.33.55.55.77.22.11.551.11.771 0 .22-.11.44-.33.44-.66a1.53 1.53 0 000-.991c-.11-.33-.33-.55-.55-.66zm4.51 2.641c-.33-.11-.55-.22-.77-.11-.22.11-.44.33-.44.66-.11.33-.11.66 0 .99.11.33.33.55.55.77.22.11.55.11.77 0 .22-.11.44-.33.44-.66.111-.33.111-.66 0-.99-.11-.33-.22-.55-.55-.66zm4.62 2.53c-.22-.11-.55-.22-.77-.11-.22.11-.33.33-.44.66a1.53 1.53 0 000 .991c.11.33.33.55.55.77.22.11.55.22.77 0 .221-.11.441-.33.441-.66.11-.33.11-.66 0-.99-.11-.221-.33-.441-.551-.661zm4.512 2.641c-.22-.11-.55-.22-.77-.11-.22.11-.33.33-.44.66-.11.33-.11.66 0 .99.11.331.33.551.55.771.22.11.55.11.77 0 .22-.11.44-.33.44-.661.11-.33.11-.66 0-.99-.11-.22-.22-.44-.55-.66zm4.511 2.641c-.22-.11-.55-.22-.77-.11-.22.11-.44.33-.44.66-.11.33-.11.66 0 .99.11.33.33.55.55.77.22.11.55.11.77 0 .22-.11.44-.33.44-.66.11-.33.11-.66 0-.99 0-.22-.22-.44-.55-.66zm4.622 2.64c-.22-.11-.55-.22-.77-.11-.22.11-.44.331-.44.661-.11.33-.11.66 0 .99.11.33.33.55.55.77.22.11.55.22.77 0 .22-.11.44-.33.44-.66.11-.33.11-.66 0-.99-.11-.22-.33-.551-.55-.661zm4.512 2.641c-.22-.11-.55-.22-.77-.11-.221.11-.441.33-.441.66-.11.33-.11.66 0 .99.11.33.33.55.551.771.22.11.55.22.77 0 .22-.11.44-.331.44-.661.11-.33.11-.66 0-.99-.11-.33-.22-.55-.55-.66zm4.621 2.641c-.22-.11-.55-.22-.77-.11-.22.11-.33.33-.441.66-.11.33-.11.66 0 .99.111.33.331.55.551.77.22.11.55.22.77 0 .22-.11.44-.33.44-.66.11-.33.11-.66 0-.99-.11-.33-.33-.55-.55-.66zm4.512 2.64c-.221-.11-.551-.22-.771-.11-.22.11-.44.33-.44.66a1.53 1.53 0 000 .991c.11.33.33.55.55.77.22.11.551.11.771 0 .22-.11.44-.33.44-.66.11-.33.11-.66 0-.991-.11-.33-.33-.55-.55-.66zm5.17 3.301c-.11-.33-.33-.55-.55-.66-.22-.11-.551-.22-.771-.11-.22.11-.44.33-.44.66-.11.33-.11.66 0 .99.11.331.33.551.55.771.221.11.551.11.771 0 .22-.11.44-.33.44-.661.11-.33.11-.66 0-.99z" fill="#FBFBFB"/><path d="M321.611 378.052l-13.753-7.922c-1.321-.77-2.861 0-3.301 1.76l-3.961 14.634c-.44 1.76.22 3.741 1.65 4.511L316 398.957c1.32.77 2.86 0 3.3-1.76l3.961-14.634c.441-1.65-.33-3.741-1.65-4.511z" fill="#1E959B"/><path d="M310.719 377.612a.703.703 0 00-.661 0l-1.1.55c-1.1.66-.99 3.961.33 7.702.991 2.75 2.311 4.841 3.411 5.501.33.22.66.22.99.11l1.101-.55c.44-.22.55-.88.44-1.43l-.77-2.201c-.11-.33-.33-.55-.441-.66-.33-.22-.66-.11-.88.22-.22.33-.66.44-.99.22-.11 0-.11-.11-.11-.11-.77-.77-1.54-2.861-1.43-4.071 0-.55.44-.99.77-.88.55.11.99-.66.77-1.541l-.77-2.2c-.22-.33-.44-.55-.66-.66z" fill="#fff"/><path d="M299.275 365.179l-146.998-84.832c-1.32-.77-2.86 0-3.3 1.761l-3.961 14.633c-.44 1.761.22 3.741 1.65 4.511l146.997 84.832c1.321.77 2.861 0 3.301-1.761l3.961-14.633c.44-1.651-.22-3.741-1.65-4.511z" fill="#FBFBFB"/><path d="M159.648 294.541l.11-.44v-.11l-.881-.551v-.11l.331-1.21v-.11l-.441-.22-.11.11-.33 1.21-.55-.33h-.11l-.11.44v.11l.55.33v.111l-.88 3.3c-.11.551-.11.881 0 1.211.11.33.44.55.77.77.11.11.22.11.33.11l.11-.11.11-.44v-.11l-.22-.11c-.22-.11-.44-.33-.44-.55-.11-.22-.11-.441 0-.771l.77-3.08.991.55zm4.071 1.76l-.44-.22h-.11l-2.2 3.631.11-4.841-.11-.11-.44-.22h-.11v6.051c-.22.33-.33.55-.55.77-.111.111-.331.221-.441.221-.11 0-.33 0-.55-.221l-.11.111-.11.44v.11h.11c.33.22.55.22.77.33.22 0 .331-.11.551-.22.22-.11.44-.44.66-.881l2.97-4.731v-.22zm2.64 1.431c-.22-.111-.44-.221-.66-.221a.84.84 0 00-.551.221l.111-.441v-.11l-.441-.22-.11.11-1.87 7.042v.11l.44.22.11-.11.66-2.42c.11.22.22.55.33.77.11.22.33.44.55.55.441.22.771.33 1.101.22.33-.11.55-.33.77-.77.11-.22.33-.66.44-1.211.11-.55.22-.99.22-1.43 0-.44-.11-.88-.22-1.32-.22-.44-.44-.77-.88-.99zm.55 2.53c0 .22-.11.44-.22.77s-.22.55-.22.771c-.11.22-.22.33-.22.44-.11.22-.33.33-.44.33-.22 0-.44 0-.661-.11-.22-.11-.33-.33-.44-.55-.11-.22-.22-.441-.22-.771v-.55c0-.22.11-.44.22-.77s.22-.55.22-.77c.11-.22.11-.33.22-.44.111-.22.331-.33.441-.44.22-.11.33 0 .55.11.22.11.44.33.55.55.11.22.22.55.22.77v.66zm3.741-.11c-.44-.22-.77-.33-1.1-.22-.33.11-.66.33-.88.77-.11.11-.11.22-.22.44s-.11.44-.22.661c-.22.66-.22 1.1-.22 1.54 0 .44.11.88.33 1.32.22.33.44.66.88.881.33.22.66.33.99.22.33 0 .55-.221.771-.441v-.22l-.221-.44h-.11c-.11.22-.33.33-.55.33-.22 0-.44 0-.66-.11-.33-.22-.55-.44-.66-.66-.11-.33-.22-.66-.22-.99 0-.11 0-.44.11-.77l2.641 1.54.11-.11.11-.33c.11-.33.11-.55.11-.77.11-.66 0-1.21-.11-1.651-.11-.33-.44-.66-.881-.99zm.441 2.971l-2.201-1.21c.11-.331.22-.551.22-.661.11-.22.33-.44.55-.55.22-.11.44 0 .77.11.22.11.44.33.661.66.11.331.22.661.11.991 0 .11 0 .33-.11.66zm6.052.99c-.22-.22-.44-.44-.77-.66-.44-.22-.881-.33-1.211-.22-.33.11-.55.33-.66.77-.11.33-.11.55 0 .88.11.33.22.55.33.77.11.221.33.441.66.771l.551.55c.11.11.22.33.22.44.11.11.11.33 0 .55-.11.22-.22.44-.441.44-.22.11-.44 0-.77-.11-.33-.22-.55-.44-.66-.66-.11-.22-.22-.55-.11-.77v-.22l-.44-.22-.11.11v.11a.94.94 0 000 .77c.11.33.22.55.44.77.22.22.44.44.77.66.44.22.88.33 1.211.22.33-.11.55-.44.66-.88.11-.33.11-.66 0-.88-.11-.33-.22-.55-.33-.77-.22-.22-.44-.44-.661-.771-.33-.33-.55-.55-.66-.77-.11-.22-.11-.44-.11-.66.11-.22.22-.44.44-.44s.44 0 .771.22c.33.22.55.44.66.66.11.22.22.55.11.77v.11l.33.221h.11c.11-.221.11-.551 0-.881 0-.33-.11-.55-.33-.88zm3.41 1.761c-.44-.22-.77-.33-1.1-.22a1.47 1.47 0 00-.881.77c-.11.22-.33.66-.44 1.21-.11.55-.22.99-.22 1.32 0 .551.11.991.33 1.431.22.44.55.77.88.99.331.22.771.33 1.101.22.33-.11.66-.33.88-.77.11-.22.33-.66.44-1.21.11-.55.22-.991.22-1.321 0-.55-.11-.99-.33-1.32-.22-.55-.44-.88-.88-1.1zm.44 3.411c-.11.44-.22.77-.33.99-.11.22-.33.44-.55.55-.22.11-.44 0-.771-.11-.22-.11-.44-.33-.66-.66-.11-.33-.22-.66-.22-.99 0-.221.11-.661.22-1.101.11-.44.22-.77.33-.99.11-.22.33-.44.551-.55.22-.11.44 0 .77.11.22.11.44.33.66.66.11.33.22.66.22.99-.11.22-.11.66-.22 1.101zm6.602.66c-.22-.11-.55-.22-.77-.22-.22 0-.44.11-.66.33 0-.331-.11-.661-.33-.881-.11-.22-.33-.44-.66-.66-.22-.11-.44-.22-.66-.22a.84.84 0 00-.55.22l.11-.44v-.11l-.441-.22-.11.11-1.32 5.061v.11l.44.22.11-.11.88-3.41c.11-.331.221-.661.551-.771.22-.11.55-.11.77.11.33.11.44.44.55.771.11.33.11.66 0 1.1l-.88 3.301v.11l.44.22.11-.11.88-3.411c.11-.33.22-.66.55-.77.22-.11.44-.11.77.11.33.11.441.44.551.77.11.33.11.66 0 1.1l-.881 3.301v.11l.44.22.11-.11.881-3.521c.11-.55.11-.99 0-1.43-.22-.33-.44-.66-.881-.88zm4.071 2.31c-.44-.22-.77-.33-1.1-.22-.33.11-.66.33-.88.77-.11.11-.11.33-.221.44 0 .22-.11.441-.22.661-.11.66-.22 1.1-.22 1.54 0 .44.11.88.33 1.32.221.33.441.66.881.881.33.22.66.33.99.22.33 0 .55-.22.77-.441v-.22l-.22-.44h-.11c-.11.22-.33.33-.55.33-.22 0-.44 0-.66-.11-.33-.22-.55-.44-.66-.66-.11-.33-.22-.66-.22-.99 0-.11.11-.33.11-.77l2.64 1.54.11-.11.11-.33c.11-.33.11-.55.22-.77.11-.66 0-1.21-.11-1.651-.22-.33-.55-.66-.99-.99zm.44 2.971l-2.2-1.21c.11-.33.22-.551.22-.661.11-.22.33-.44.55-.55.22-.11.44 0 .77.11.22.11.44.33.66.66.11.331.22.661.11.991 0 .11 0 .33-.11.66zm3.961.33l.11-.44v-.11l-.88-.55v-.11l.33-1.21v-.111l-.44-.22-.11.11-.33 1.211-.441-.33h-.11l-.11.44.11.11.441.33v.11l-.881 3.301c-.11.55-.11.88 0 1.21.11.33.44.55.771.77.11.11.22.11.33.11l.11-.11.11-.44v-.11l-.22-.11c-.22-.11-.44-.33-.551-.55-.11-.22-.11-.44 0-.77l.771-3.081.99.55zm2.971.99c-.44-.33-.88-.33-1.321 0l.661-2.42v-.11l-.44-.22-.11.11-1.871 7.041v.11l.44.221h.11l.88-3.301c.11-.44.33-.66.551-.771.22-.11.55-.11.77.111.33.11.44.44.66.77.11.33.11.66 0 1.1l-.88 3.301v.11l.44.22.11-.11.88-3.411c.11-.55.11-1.1 0-1.54-.11-.551-.44-.881-.88-1.211zm2.86 1.761h-.11l-1.431 5.061.11.22.441.22.11-.11 1.32-5.061-.11-.11-.33-.22zm.771-.771c.11-.11.22-.22.22-.33v-.55c-.11-.11-.11-.22-.33-.33-.11-.11-.22-.11-.33 0-.11 0-.22.22-.22.33v.44c.11.11.11.33.33.33.11.11.22.11.33.11zm2.86 2.751c-.44-.33-.88-.33-1.32 0l.11-.44v-.11l-.44-.22-.11.11-1.321 4.951v.11l.44.22.11-.11.881-3.301c.11-.44.22-.66.55-.77.22-.11.55-.11.77.11.33.22.44.44.66.77.11.331.11.661 0 1.101l-.88 3.301v.11l.44.22h.11l.88-3.411c.11-.55.11-1.1 0-1.541-.22-.44-.44-.88-.88-1.1zm5.723 3.411l-.44-.22-.11.11-.11.44c-.111-.55-.441-.99-.881-1.21-.33-.22-.66-.22-.99-.11-.33.11-.55.33-.77.66a.84.84 0 00-.22.55c-.11.22-.11.44-.22.77-.11.551-.22.991-.22 1.321 0 .44.11.99.22 1.32.22.44.44.66.88.88.44.22.88.22 1.21 0l-.11.44c-.11.551-.33.881-.66.991-.33.11-.66 0-1.21-.22l-.22-.11h-.11v.11l-.11.44v.11c.11 0 .11.11.33.22.66.33 1.1.44 1.54.33.44-.11.77-.66.99-1.43l1.321-4.952-.11-.44zm-1.101 1.651c0 .11-.11.33-.22.66s-.11.55-.22.66c0 .11-.11.22-.11.33-.11.22-.33.44-.55.55-.22.11-.44.11-.77-.11-.22-.11-.44-.33-.55-.66-.11-.33-.22-.55-.11-.88 0-.22.11-.55.22-1.101.11-.44.22-.77.33-.99.11-.22.33-.44.55-.55.22-.11.44-.11.77.11.22.11.44.33.55.66.11.33.11.55.11.88.11.11.11.221 0 .441z" fill="#D0D8EB"/><path d="M294.433 367.929c-.11-.11-.33-.11-.44-.11l-8.252-.66c-.88-.11-1.1.55-.44 1.431l1.87 2.86 3.191-.77-2.641 2.311.441 3.521c.11.55.22.88.44.99.22.11.55 0 .77-.44l5.171-7.702c.33-.55.33-1.101-.11-1.431z" fill="#7D9CF0"/><path d="M353.08 159.316l-2.641 2.091-.11.55 1.871 1.1-.22.881.66.44.22-.881.44.221.22-.771-.44-.22.77-2.86-.77-.551zm-.77 2.861l-.991-.55 1.431-1.1-.44 1.65zm2.75.55c0-.11.11-.22.11-.33.11-.11.11-.22.22-.22l.22-.22c.11 0 .22-.11.22 0 .11 0 .22 0 .331.11.11 0 .11.11.22.22l.11.22.11.33.11.33.77-.11c0-.22-.11-.33-.11-.55 0-.11-.11-.33-.22-.44-.11-.11-.22-.33-.33-.44-.11-.11-.22-.22-.44-.33-.221-.11-.331-.11-.551-.22h-.44c-.11 0-.33.11-.44.22l-.33.33c-.11.11-.22.33-.33.44-.11.22-.11.33-.22.55 0 .22-.11.44-.11.66v.661c0 .22 0 .44.11.66 0 .22.11.44.22.55.11.22.22.33.33.55.11.11.33.22.44.33.22.11.33.22.55.22.22 0 .33 0 .551-.11.11-.11.33-.22.44-.44.11-.22.22-.44.33-.77l.22-.66-1.321-.77-.22.88.661.33c0 .11-.11.22-.11.22l-.221.11h-.22c-.11 0-.22 0-.22-.11-.11-.11-.33-.22-.33-.33-.11-.11-.11-.33-.22-.55v-.55c0-.221 0-.441.11-.551-.11 0-.11-.11 0-.22zm4.622 1.321l-.66-.33-.33 1.1-.88-.44-.22.77.88.55-.22 1.1.66.441.33-1.211.88.55.22-.88-.88-.44.22-1.21zm2.421 5.831l.77.44.55-1.98-.88-.44-.44 1.98zm2.309-2.09l-.77 2.97.77.44.77-2.97-.77-.44zm1.872-.11l-1.1 3.961.77.44 1.1-3.961-.77-.44zm.549 4.951l.77.44 1.321-5.171-.771-.441-1.32 5.172zm5.172-2.971c-.331-.22-.771 0-.881.44l-.99 3.521c-.11.44.11.99.44 1.21l4.731 2.751 1.431-5.171-4.731-2.751zM115.639 22.992v-.11l-.11-.11-5.391-3.081h-.22v.11l-1.32 4.841c0 .11 0 .33.11.33l5.391 3.081c.11.11.22 0 .22-.11l1.32-4.951s0 .11 0 0zm-.88-.11l-2.53.66-1.541-3.08 4.071 2.42zm-.77 4.731l-5.061-2.86 1.1-4.182 1.76 3.521.11.11h.111l2.97-.77-.99 4.181zm8.693-.66c-1.541-.88-3.191-.44-3.521 1.1-.33 1.32.33 2.97 1.54 3.961-.22.22-.44.44-.77.55h.11c.22.11 1.1.55 1.871.11 1.32.44 2.53-.11 2.97-1.32.33-1.54-.66-3.52-2.2-4.401zm6.051 5.831c-.22-.11-.55 0-.66.33-.11.33.11.77.33.88.22.11.55 0 .66-.33.11-.22-.11-.66-.33-.88zm2.531 1.541c-.22-.11-.55 0-.66.33-.11.33 0 .77.33.88.22.11.55 0 .66-.33.11-.33 0-.77-.33-.88zm2.531 1.43c-.22-.11-.55 0-.66.33-.11.33 0 .77.33.88.22.11.55 0 .66-.33.11-.33 0-.66-.33-.88zM239.86 93.63l-.33-.11h-.88v.11l-.11.22.11.11.66.11h.11l-1.21 4.51v.111l.33.11 1.32-5.061v-.11zm2.092 1.21c-.331-.22-.661-.22-.881-.11-.22.11-.44.33-.55.77l-.66 2.31c-.11.22-.11.55-.11.771 0 .33.11.66.22.99.11.33.33.55.66.66.22.11.55.22.77.11.22-.11.441-.22.551-.44.11-.11.22-.33.33-.66.11-.33.11-.66.11-.88 0-.33-.11-.55-.22-.77-.11-.22-.33-.44-.551-.55-.33-.22-.66-.22-.88 0l.33-1.1c.11-.22.22-.44.33-.55.22-.11.33-.11.551 0 .22.11.33.33.44.55.11.22.11.44 0 .77v.22l.33.22h.11v-.11c.11-.33.11-.77 0-1.1-.33-.66-.55-.88-.88-1.101zm-1.101 2.31c.11 0 .33 0 .44.11.22.11.33.22.33.44.11.22.11.33.11.55 0 .22 0 .331-.11.661-.11.22-.11.44-.22.55-.11.22-.22.33-.33.33-.11 0-.33 0-.44-.11a.859.859 0 01-.44-.44c-.11-.22-.11-.33-.11-.55 0-.11 0-.33.11-.55.11-.22.11-.44.22-.55l.44-.44zm3.081.88c-.11-.11-.22-.11-.22 0-.11 0-.11.11-.22.22v.331c0 .11.11.22.22.22.11.11.22.11.22 0 .11 0 .11-.11.22-.22v-.33c0-.11-.11-.11-.22-.22zm-.66 2.532c-.11 0-.22-.11-.22 0-.11 0-.11.11-.22.22v.33c0 .11.11.22.22.22.11.11.22.11.22 0 .11 0 .11-.11.22-.22v-.33c-.11-.11-.11-.22-.22-.22zm3.19-.771l1.32-.88v-.11l.11-.33v-.11l-2.09-1.21h-.11l-.11.33v.11l1.65.99-1.43.88v.11l.11.33v.11h.22c.33.221.44.441.55.881 0 .22 0 .44-.11.77-.11.22-.11.44-.22.55-.22.33-.44.44-.88.22a.859.859 0 01-.44-.44c-.11-.22-.11-.44-.11-.66 0-.11 0-.22.11-.44v-.11l-.331-.22h-.11c0 .22-.11.44-.11.55 0 .33 0 .66.22.99.111.33.331.55.661.66.22.11.55.22.77.11.22 0 .44-.22.55-.44.11-.22.22-.44.22-.66.11-.33.11-.66.11-.88.11-.44-.11-.881-.55-1.1zm2.311-.99l-.88 2.861v.11l.33.22h.11c.11-.11.22-.22.33-.22.22 0 .33 0 .55.11.22.11.33.22.44.44.11.22.11.44.11.66 0 .11 0 .33-.11.55 0 .22-.11.33-.11.44a.857.857 0 01-.44.441c-.11.11-.33 0-.55-.11a.86.86 0 01-.44-.441c-.11-.22-.11-.44-.11-.66v-.22l-.33-.22h-.111v.33c0 .33.111.66.221.88.11.331.33.551.66.661.33.11.55.22.77.11.22-.11.44-.22.55-.55.11-.111.11-.331.22-.551.11-.22.11-.44.11-.66 0-.33 0-.66-.22-.88a.992.992 0 00-.66-.66c-.11-.11-.33-.11-.44-.11-.11 0-.33 0-.44.11l.44-1.76 1.65.99h.11l.33-.551v-.11l-2.09-1.21z" fill="#fff"/><path opacity=".4" d="M378.606 173.51l-1.87-1.1-1.43 5.171 1.87 1.1c.33.221.77.001.88-.44l.22-.99.33.22c.111.11.221 0 .221-.11l.33-1.1c0-.11 0-.33-.11-.33l-.33-.22.22-.99c.22-.551 0-.991-.331-1.211z" fill="#fff"/><path d="M102.765 59.301l-7.372-4.291c-.22-.11-.44 0-.55.33-.11.33 0 .66.22.77l7.372 4.291c.22.11.44 0 .55-.33.22-.22 0-.66-.22-.77zm-.88 3.741l-7.372-4.291c-.22-.11-.44 0-.55.33-.11.33 0 .66.22.77l7.372 4.291c.22.11.44 0 .55-.33.11-.33 0-.66-.22-.77zm-.99 3.631l-7.372-4.291c-.22-.11-.44 0-.55.33-.11.33 0 .66.33.77l7.372 4.291c.22.11.44 0 .55-.33 0-.33-.11-.66-.33-.77zm7.702-.99c-.33-.22-.66-.22-.88-.11-.33.11-.55.22-.66.55-.11.22-.22.55-.33.99-.11.44-.22.77-.22 1.1 0 .44.11.77.22 1.1.22.33.44.55.77.77.33.22.66.22.88.22.33-.11.55-.22.66-.55l.11-.11v-.11l-.33-.22h-.11c-.11.22-.22.33-.44.33s-.44 0-.66-.11c-.22-.11-.44-.33-.44-.55-.11-.22-.11-.44-.11-.77 0-.22.11-.55.22-.88.11-.33.22-.66.33-.77.11-.22.22-.33.44-.44.22-.11.44 0 .66.11.22.11.33.33.44.55.111.22.111.44.111.66v.22l.33.11h.11v-.22c0-.33-.11-.66-.22-.99-.33-.44-.551-.77-.881-.88zm4.181 2.42l-.77 2.751c-.11.33-.22.55-.44.66-.22.11-.44.11-.66 0-.22-.11-.44-.33-.44-.66-.11-.22-.11-.55 0-.88l.66-2.64v-.11l-.33-.22h-.11l-.771 2.86c-.11.33-.11.55 0 .88 0 .22.111.55.331.66.11.22.33.44.55.55.44.22.77.22.99 0l-.11.33v.11l.33.22h.11l1.1-4.07v-.11l-.44-.33zm3.189 1.981c-.11-.22-.33-.33-.55-.55-.33-.22-.66-.22-.99-.22-.22.11-.44.33-.55.66-.11.22-.11.44 0 .66.11.22.11.44.33.55.11.22.33.44.55.66l.44.44c.11.11.11.22.22.33v.44c-.11.22-.22.33-.33.33-.22 0-.33 0-.55-.11-.22-.11-.44-.33-.55-.55-.11-.22-.11-.44-.11-.66v-.22l-.33-.22h-.11v.11c-.11.22 0 .44 0 .66l.33.66c.11.22.33.33.55.55.33.22.66.22.99.22.33-.11.44-.33.55-.66.11-.22.11-.44 0-.77-.11-.22-.22-.44-.33-.55-.11-.22-.33-.33-.55-.66-.22-.22-.44-.44-.55-.66-.11-.22-.11-.33-.11-.55.11-.22.22-.33.33-.33.11 0 .33 0 .55.11.22.11.44.33.55.55.11.22.11.44.11.55v.11l.33.22h.11c.11-.22.11-.44 0-.66-.11 0-.22-.22-.33-.44zm2.862 1.54l-.77-.44.22-.99v-.11l-.33-.22h-.11l-.22.99-.44-.22h-.11l-.11.33v.11l.44.22-.66 2.64c-.11.44-.11.771 0 .991.11.22.33.44.66.66.11.11.22.11.22.11h.11l.11-.33v-.11l-.11-.11a.859.859 0 01-.44-.44c-.11-.22-.11-.33 0-.66l.66-2.42.77.44h.11l.11-.33-.11-.11zm2.092 1.101c-.33-.22-.661-.22-.881-.22-.33.11-.55.22-.66.55-.11.22-.22.55-.33.99-.11.44-.22.77-.22 1.1 0 .44.11.77.22 1.1.22.33.44.55.77.77.33.22.66.22.881.11.33-.11.55-.22.66-.55.11-.22.22-.55.33-.99.11-.44.22-.77.22-1.1 0-.44-.11-.77-.22-1.1-.22-.22-.44-.44-.77-.66zm.33 2.75c-.11.33-.22.66-.33.77-.11.22-.33.33-.441.44-.22.11-.44 0-.55-.11-.22-.11-.33-.33-.44-.55-.11-.22-.11-.44-.11-.77 0-.22.11-.55.22-.88.11-.33.22-.66.33-.77.11-.22.22-.33.44-.44.221-.11.441 0 .551.11.22.11.33.33.44.55.11.22.22.44.11.77 0 .22-.11.55-.22.88zm5.389.55c-.22-.11-.44-.22-.66-.22-.22 0-.44.11-.55.33 0-.22-.11-.55-.22-.77-.11-.22-.33-.44-.55-.55-.22-.11-.33-.11-.55-.22-.22 0-.33 0-.44.11l.11-.33v-.11l-.33-.22h-.11l-1.101 4.07v.111l.33.22h.11l.771-2.75c.11-.33.22-.55.44-.55.22-.11.44-.11.66 0 .22.11.33.33.44.55.11.22.11.55 0 .88l-.77 2.64v.11l.33.22h.11l.77-2.75c.11-.33.22-.55.44-.55.22-.11.44-.11.66.11.22.11.33.33.44.55.11.22.11.55 0 .88l-.77 2.64v.11l.33.22h.11l.771-2.75c.11-.44.11-.88 0-1.21-.22-.33-.441-.55-.771-.77zm3.191 1.871c-.33-.22-.66-.22-.88-.11-.33.11-.55.33-.66.66-.11.11-.11.22-.11.33 0 .11-.11.33-.11.55-.11.55-.22.88-.22 1.21 0 .33.11.77.22.99.11.33.44.55.66.77.33.11.55.221.77.221.22 0 .44-.11.66-.33v-.11l-.22-.33h-.11c-.11.11-.33.22-.44.22-.22 0-.33 0-.55-.11-.22-.11-.44-.33-.55-.55-.11-.22-.22-.44-.11-.77 0-.11 0-.33.11-.66l2.09 1.21h.11l.11-.22c.11-.22.11-.44.11-.55.11-.44 0-.99-.11-1.32-.11-.551-.33-.881-.77-1.101zm.44 2.42l-1.76-.99c.11-.22.11-.44.22-.55.11-.22.22-.33.44-.44.22-.11.33 0 .55.11.22.11.44.33.44.55.11.22.11.44.11.77.11.11 0 .22 0 .55zm3.192-.33c-.22-.11-.33-.11-.551-.11-.22 0-.33.11-.44.33l.11-.55v-.11l-.33-.22h-.11l-1.1 4.071v.11l.33.22h.11l.66-2.42c.11-.33.22-.55.44-.66.22-.11.44-.11.661 0h.11c.11 0 .22.11.22.22h.11l.22-.33v-.11l-.44-.44zm3.961 2.531c-.11-.22-.33-.33-.55-.55-.33-.22-.66-.22-.99-.22-.33.11-.44.33-.55.66-.11.22-.11.44 0 .66l.33.66c.11.22.33.44.55.66l.44.44c.11.11.11.22.22.33v.44c-.11.22-.22.33-.33.33-.22 0-.33 0-.55-.11-.22-.11-.44-.33-.55-.55-.11-.22-.11-.44-.11-.66v-.22l-.33-.22h-.11v.77l.33.66c.11.22.33.33.66.55.33.221.66.221.99.221.33-.11.44-.33.55-.66a.94.94 0 000-.77c-.11-.22-.22-.44-.33-.55-.11-.22-.33-.33-.55-.66-.22-.22-.44-.44-.55-.66-.11-.22-.11-.33-.11-.551.11-.22.11-.33.33-.33.22 0 .33 0 .55.11.22.11.44.33.55.55.11.22.11.44.11.55v.11l.33.22h.11c.11-.22.11-.44 0-.66-.11-.11-.22-.33-.44-.55zm3.962 2.09l-.33-.22h-.11l-.661 2.641c-.11.33-.22.55-.44.66a.7.7 0 01-.66 0c-.22-.11-.44-.33-.44-.66-.11-.22-.11-.55 0-.88l.66-2.64v-.11l-.33-.221h-.11l-.77 2.86c-.11.33-.11.55 0 .881 0 .22.11.55.33.66.11.22.33.33.55.55.44.22.77.22.99 0l-.11.33v.11l.33.22h.11l1.101-4.07-.11-.11zm3.189 2.091c-.11-.33-.33-.55-.661-.77-.22-.11-.33-.11-.55-.11-.11 0-.33.11-.44.22l.11-.33v-.11l-.33-.22h-.11l-1.54 5.721v.11l.33.22h.11l.55-1.98c0 .22.11.44.22.55.11.11.22.33.44.44.33.22.55.22.88.11.22-.11.44-.33.661-.55.11-.22.22-.55.33-.99.11-.44.22-.77.22-1.1 0-.55-.11-.88-.22-1.211zm-.33 1.32c0 .11-.111.33-.111.66-.11.22-.11.44-.22.66-.11.11-.11.22-.22.33-.11.11-.22.22-.44.33-.11 0-.33 0-.55-.11a.859.859 0 01-.44-.44c-.11-.22-.11-.33-.11-.55v-.44c0-.11.11-.33.11-.66.11-.22.11-.44.22-.66.11-.11.11-.22.22-.33.11-.11.22-.22.44-.33.11 0 .33 0 .44.11.22.11.33.22.44.44.11.22.11.44.11.66.111 0 .111.22.111.33zm3.192 0c-.22-.11-.33-.11-.55-.11-.22 0-.33.11-.44.22l.11-.33v-.11l-.33-.22h-.11l-1.541 5.722v.11l.33.22h.11l.55-1.98c0 .22.11.44.22.55.111.22.221.33.441.44.33.22.55.22.88.11.22-.11.44-.33.66-.55.11-.22.22-.55.33-.99.11-.44.22-.771.22-1.101 0-.44 0-.77-.22-1.1-.11-.44-.33-.66-.66-.88zm.44 2.09c0 .111-.11.331-.11.661-.11.22-.11.44-.22.66-.11.11-.11.22-.22.33-.11.11-.22.22-.44.33-.11 0-.33 0-.55-.11-.22-.11-.33-.22-.33-.44-.11-.22-.11-.33-.11-.55v-.44c0-.11.11-.33.11-.66.11-.22.11-.44.22-.66.11-.11.11-.22.22-.33l.33-.33c.11 0 .33 0 .44.11.22.11.33.22.44.44.11.22.11.44.11.66.11 0 .11.11.11.33zm3.08.001c-.33-.22-.66-.22-.88-.22-.331.11-.551.22-.661.55-.11.22-.22.55-.33.99-.11.44-.22.77-.22 1.1 0 .44.11.77.22 1.1.22.33.44.55.77.77.331.221.661.221.881.111.33-.11.55-.22.66-.55.11-.22.22-.55.33-.99.11-.44.22-.77.22-1.1 0-.44-.11-.77-.22-1.101-.22-.22-.55-.55-.77-.66zm.22 2.64c-.11.33-.22.66-.33.77-.11.22-.22.33-.44.44-.22.11-.441 0-.551-.11-.22-.11-.33-.33-.44-.55-.11-.22-.11-.44-.11-.77 0-.22.11-.55.22-.88.11-.33.22-.66.33-.77.11-.22.331-.33.441-.44.22-.11.44 0 .55.11.22.11.33.33.44.55.11.22.11.44.11.77 0 .22-.11.55-.22.88zm3.411-.549c-.22-.11-.33-.11-.551-.11-.22 0-.33.11-.44.33l.11-.55v-.11l-.33-.22h-.11l-1.1 4.07v.11l.33.22h.11l.66-2.42c.11-.33.22-.55.44-.66.22-.11.44-.11.661 0h.11c.11.11.22.11.22.22h.11l.22-.33v-.11l-.44-.44zm2.53 1.54l-.77-.44.22-.99v-.11l-.33-.22h-.11l-.22.99-.44-.22h-.11l-.11.33v.11l.44.22-.66 2.64c-.11.44-.11.77 0 .99.11.22.33.44.66.66.11.11.22.11.22.11h.11l.11-.33v-.11l-.11-.11a.859.859 0 01-.44-.44c-.11-.22-.11-.33 0-.66l.66-2.42.77.44h.11l.11-.33-.11-.11z" fill="#000"/><path d="M177.255 120.587L93.634 72.284c-1.32-.77-2.86 0-3.3 1.76l-2.642 9.793c-.44 1.76.22 3.741 1.65 4.511l83.622 48.303c1.32.77 2.861 0 3.301-1.761l2.641-9.792c.44-1.651-.221-3.741-1.651-4.511z" fill="#EDEFF2"/><path d="M170.323 128.509c-1.1-.661-1.65-2.311-1.32-3.741.33-1.431 1.54-2.091 2.751-1.431 1.1.66 1.65 2.311 1.32 3.741-.44 1.431-1.651 2.091-2.751 1.431zm1.651-6.162c-1.541-.88-3.301 0-3.851 1.981-.55 1.98.33 4.291 1.87 5.281.66.33 1.32.44 1.871.22l.66 1.98c0 .11.11.221.22.331.11.11.22.11.33 0 .22-.11.33-.441.22-.771l-.66-1.98c.55-.44.88-.99 1.1-1.871.66-1.87-.22-4.291-1.76-5.171z" fill="#D0D8EB"/><path d="M92.863 114.095c-.22-.44-.44-.77-.88-.99l-1.54-.88h-.11l-1.541 5.611v.11l1.54.88c.44.22.77.33 1.1.11.33-.11.55-.44.66-.99l.661-2.641c.33-.33.22-.88.11-1.21zm-.44 1.21l-.66 2.421c-.11.33-.22.55-.44.66-.22.11-.44.11-.77-.11l-1.1-.66 1.21-4.731 1.1.66c.33.22.44.44.55.66.22.33.22.66.11 1.1zm2.641 1.321c-.33-.22-.66-.22-.88-.11-.33.11-.55.33-.66.66 0 .11-.11.22-.11.33 0 .11-.11.33-.11.55-.111.55-.221.88-.221 1.21 0 .331.11.771.22.991.11.33.44.55.66.77.33.11.55.22.77.22.22 0 .44-.11.66-.33v-.11l-.22-.33h-.11c-.11.11-.22.22-.44.22s-.33 0-.55-.11c-.22-.11-.44-.33-.55-.55-.11-.22-.11-.44-.11-.771 0-.11 0-.33.11-.66l2.09 1.211h.11l.11-.22c.11-.221.11-.441.11-.551.11-.44 0-.88-.11-1.32-.11-.55-.44-.88-.77-1.1zm.33 2.31l-1.76-.99c.11-.22.11-.44.22-.55.11-.22.22-.33.44-.44.22-.11.33 0 .55.11.22.11.44.33.44.55.11.22.11.44.11.77.11.11.11.33 0 .55zm2.751-2.31l-.33-.22h-.11l-1.54 5.721.11.11.33.11 1.54-5.611v-.11zm1.43.66c-.11-.11-.22-.11-.33 0-.11 0-.11.11-.22.33v.44c0 .11.11.22.22.33.11.11.22.11.33 0 .11 0 .11-.11.22-.22v-.44c-.11-.22-.11-.33-.22-.44zm-.66 1.65h-.11l-1.1 4.071.11.11.33.22.11-.11.99-3.961v-.22l-.33-.11zm3.85 2.201l-.44-.22-1.761 2.75v-3.851l-.44-.22v4.842l.44.22h.11l2.091-3.411v-.11zm1.87.99c-.33-.22-.66-.22-.88-.11-.33.11-.55.33-.66.66 0 .11-.11.22-.11.33 0 .11-.11.331-.22.551-.11.55-.22.88-.22 1.21 0 .33.11.77.22.99.11.33.44.55.66.77.33.11.55.22.77.22.22 0 .44-.11.661-.33v-.11l-.221-.33h-.11c-.11.11-.22.22-.44.22s-.33 0-.55-.11c-.22-.11-.44-.33-.55-.55-.11-.22-.22-.44-.11-.77 0-.11 0-.33.11-.66l2.091 1.21h.11l.11-.22c.11-.22.11-.44.11-.55.11-.44 0-.88-.11-1.32 0-.551-.22-.881-.661-1.101zm.331 2.421l-1.761-.99c.11-.22.11-.441.22-.551.11-.22.22-.33.44-.44.22-.11.33 0 .55.11.22.11.441.33.551.551.11.22.11.44.11.77 0 .11 0 .22-.11.55zm3.08.33c.11.11.22.11.22.22h.11l.22-.33v-.11l-.33-.33c-.22-.11-.33-.11-.55-.11-.22 0-.33.11-.44.22l.11-.55v-.11l-.33-.221h-.11l-1.1 4.072v.11l.33.22h.11l.66-2.421c.11-.33.22-.55.44-.66.11-.22.33-.22.66 0zm3.301 1.21l-1.87 2.861.11-3.851-.11-.11-.33-.22h-.11v4.841c-.11.33-.33.44-.44.55-.11.11-.22.22-.33.22-.11 0-.22 0-.441-.11h-.11l-.11.33v.11c.221.11.441.22.551.22.11 0 .33 0 .44-.22.11-.11.33-.33.55-.66l2.42-3.741v-.11l-.22-.11zm3.191.77l.22-.22v-.44c0-.11-.11-.22-.22-.33-.11-.11-.22-.11-.33 0-.11 0-.11.11-.22.22v.44c0 .11.11.22.22.33.11.11.22.11.33 0zm-.659.66h-.11l-1.1 4.071v.11l.33.221h.11l1.1-4.071v-.111l-.33-.22zm3.409 2.641c-.11-.22-.11-.44-.33-.66-.11-.22-.33-.33-.55-.55-.33-.22-.66-.22-.99-.22-.33.11-.44.33-.55.66-.11.22-.11.44 0 .66.11.22.22.44.33.55.11.22.33.33.55.66l.44.441c.11.11.11.22.22.33 0 .11.11.22 0 .44 0 .22-.11.33-.33.33-.22 0-.33 0-.55-.11-.22-.11-.44-.33-.55-.55-.11-.22-.11-.44-.11-.551v-.22l-.33-.22h-.11v.771c.11.22.11.44.33.66.11.22.33.33.66.55.33.22.66.22.99.22.33-.11.44-.33.55-.66.11-.22.11-.55 0-.66-.11-.22-.22-.441-.33-.551-.11-.11-.33-.33-.55-.66-.22-.22-.44-.44-.55-.66-.11-.22-.11-.33-.11-.55 0-.22.11-.33.33-.33.11 0 .33 0 .55.11.22.11.44.33.55.55.11.22.11.44.11.55v.11l.33.22h.11c0-.22 0-.44-.11-.66zm2.752 1.1c-.11-.22-.33-.33-.55-.55-.33-.22-.66-.22-.99-.22-.22.11-.44.33-.55.66a.703.703 0 000 .661c.11.22.11.44.33.55.11.22.33.33.55.66l.44.44c.11.11.11.22.22.33 0 .11.11.22 0 .44 0 .22-.22.33-.33.33-.22 0-.33 0-.66-.11-.22-.11-.44-.33-.55-.55-.11-.22-.11-.44-.11-.55v-.22l-.331-.22h-.11v.77c0 .22.11.44.331.66.11.22.33.33.55.55.33.22.66.22.99.22.33-.11.44-.33.55-.66.11-.22.11-.44 0-.66-.11-.22-.22-.44-.33-.55-.11-.11-.33-.33-.55-.66-.22-.22-.44-.44-.55-.66-.11-.22-.11-.33-.11-.551.11-.22.11-.33.33-.33.11 0 .33 0 .55.11.22.11.44.331.55.551.11.22.11.44.11.55v.11l.33.22h.11c.11-.22.11-.44 0-.66 0-.22-.11-.44-.22-.661zm3.521 1.871l-.77 2.641c-.11.33-.22.55-.44.66-.22.11-.44.11-.66-.11-.22-.11-.44-.33-.551-.55-.11-.22-.11-.55 0-.881l.661-2.64v-.11l-.33-.22h-.11l-.771 2.75c-.11.33-.11.551 0 .771 0 .22.11.55.33.66.11.22.331.33.551.44.44.22.77.22.99 0l-.11.33v.11l.33.22h.11l1.1-4.071v-.11l-.33.11zm2.64 1.43c-.33-.22-.66-.22-.88-.11-.33.11-.55.33-.661.66 0 .11-.11.22-.11.33 0 .11-.11.331-.22.551-.11.55-.22.88-.22 1.21 0 .44.11.77.22.99.11.33.441.55.661.77.33.11.55.22.77.22.22 0 .44-.11.66-.33v-.11l-.22-.33h-.11c-.11.11-.22.22-.44.22s-.33 0-.55-.11c-.22-.11-.441-.33-.551-.55-.11-.22-.22-.44-.11-.77 0-.11 0-.33.11-.66l2.091 1.21h.11l.11-.22c.11-.22.11-.44.11-.55.11-.44 0-.88-.11-1.32 0-.551-.22-.771-.66-1.101zm.44 2.421l-1.76-.99c.11-.22.11-.441.22-.551.11-.22.22-.33.44-.44.22-.11.33 0 .55.11.22.11.44.33.55.551.11.22.11.44.11.77 0 .11-.11.33-.11.55zm3.411 0c-.11-.22-.33-.33-.551-.55-.33-.22-.66-.22-.99-.22-.22.11-.44.33-.55.66-.11.22-.11.44 0 .66.11.22.11.44.33.55.11.22.33.33.55.66l.44.44c.11.11.11.221.22.331v.44c0 .22-.11.33-.33.33-.22 0-.33 0-.55-.11-.22-.11-.44-.33-.55-.55-.11-.221-.11-.441-.11-.551v-.22l-.33-.22h-.11v.11c-.11.22-.11.44 0 .66l.33.661c.22.22.33.33.66.55.33.22.66.33.99.22.331-.11.441-.33.551-.66.11-.22.11-.55 0-.66-.11-.221-.22-.441-.33-.551-.11-.11-.331-.33-.551-.66-.22-.22-.44-.44-.55-.66-.11-.22-.11-.33-.11-.55 0-.22.11-.33.33-.33.11 0 .33 0 .55.11.221.11.441.33.551.55.11.22.11.44.11.55v.11l.33.22h.11c.11-.22.11-.44 0-.66-.22-.22-.33-.44-.44-.66zm35.209 20.905l-2.31-6.492c0-.11-.11-.22-.22-.33-.11-.11-.22-.11-.33 0-.22.11-.33.44-.22.771l2.09 5.941-4.291 2.201c-.22.11-.33.44-.22.77 0 .11.11.22.22.33.11.11.22.11.33 0l4.621-2.421c.11 0 .22-.11.22-.33.11-.11.11-.22.11-.44z" fill="#FBFBFB"/><path d="M161.63 179.232l-83.621-48.303c-1.32-.77-2.86 0-3.3 1.761l-6.933 25.966c-.44 1.761.22 3.741 1.65 4.512l83.622 48.302c1.32.77 2.861 0 3.301-1.761l6.932-25.966c.44-1.651-.33-3.631-1.651-4.511z" fill="#1E959B"/><path d="M82.96 149.964c-.22-.44-.55-.77-.99-1.1-.44-.22-.77-.33-1.1-.22-.33.11-.55.44-.66.88-.11.33-.11.55 0 .88.11.22.11.55.33.771.11.22.33.55.66.88.22.33.44.66.55.88.11.22.22.44.22.55v.55c-.11.33-.22.44-.44.55-.22.11-.44 0-.88-.22-.33-.22-.66-.44-.77-.77-.11-.33-.22-.66-.11-.99l.11-.22v-.11l-.33-.22h-.11l-.11.22c-.11.44-.11.88.11 1.43.22.44.55.77.99 1.1.44.331.88.331 1.21.22.33-.11.55-.44.66-.88.11-.33.11-.55 0-.88-.11-.22-.22-.55-.33-.77-.11-.22-.33-.55-.66-.88-.22-.33-.44-.551-.55-.771-.11-.22-.22-.33-.22-.55v-.55c.11-.33.22-.44.44-.55.22-.11.44 0 .77.22s.55.44.77.77c.11.33.22.66.11.991v.22l.33.22h.11v-.22c.11-.551.11-.991-.11-1.431zm3.411 3.301l-.33-.22h-.11l-.66 2.641c-.11.33-.22.55-.44.66-.22.11-.44.11-.66-.11-.22-.11-.44-.33-.44-.66-.11-.22-.11-.551 0-.881l.66-2.64v-.11l-.33-.22h-.11l-.77 2.75c-.11.33-.11.55 0 .881 0 .22.11.55.33.66.11.22.33.33.55.55.44.22.77.22.99 0l-.11.33v.11l.33.22h.11l1.1-4.071-.11.11zm3.082 2.2c-.11-.33-.33-.55-.66-.77-.22-.11-.33-.11-.55-.11-.11 0-.33.11-.44.22l.11-.33v-.11l-.33-.22h-.111l-1.54 5.612v.11l.33.22h.11l.55-1.981c0 .22.11.44.22.55.11.22.22.33.44.44.33.22.55.22.88.11.22-.11.44-.33.66-.55.11-.22.22-.55.33-.99.11-.44.22-.77.22-1.1 0-.44 0-.88-.22-1.101zm-.22 1.211c0 .11-.11.33-.11.66-.11.22-.11.44-.22.66-.11.11-.11.22-.22.33-.11.11-.22.22-.44.33-.11 0-.33 0-.44-.11-.11-.11-.331-.22-.331-.44-.11-.22-.11-.33-.11-.55v-.44c0-.11.11-.33.11-.66.11-.22.11-.44.22-.55 0-.11.11-.22.22-.331.11-.11.22-.22.44-.33.11 0 .33 0 .44.11.22.11.33.221.44.441.11.22.11.44.11.66-.11-.11-.11.11-.11.22zm3.189.11c-.22-.11-.33-.11-.55-.11-.11 0-.33.11-.44.22l.11-.33v-.11l-.33-.22h-.11l-1.54 5.611v.11l.33.22h.11l.55-1.98c0 .22.11.44.22.55.11.22.22.33.44.44.33.22.55.22.88.11.22-.11.44-.33.66-.55.11-.22.22-.55.33-.99.11-.441.22-.771.22-1.101 0-.44-.11-.77-.22-1.1-.11-.44-.33-.66-.66-.77zm.33 1.98c0 .11-.11.33-.11.661-.11.22-.11.44-.22.66-.11.11-.11.22-.22.33-.11.11-.22.22-.44.33-.11 0-.33 0-.44-.11-.22-.11-.33-.22-.33-.44-.11-.22-.11-.33-.11-.55v-.441c0-.11.11-.33.11-.66.11-.22.11-.44.22-.55 0-.11.11-.22.22-.33l.33-.33c.11 0 .33 0 .44.11.22.11.33.22.44.44.11.22.11.44.11.66v.22zm3.081 0c-.33-.22-.66-.22-.88-.11-.33.11-.55.22-.66.551-.11.22-.22.55-.33.99-.11.44-.22.77-.22 1.1 0 .44.11.77.22 1.1.22.33.44.55.77.771.33.22.66.22.88.11.33-.11.55-.221.66-.551.11-.22.22-.55.33-.99.11-.44.22-.77.22-1.1 0-.44-.11-.77-.22-1.1-.22-.33-.44-.661-.77-.771zm.33 2.641c-.11.33-.22.66-.33.77-.11.22-.22.33-.44.44-.22.11-.33 0-.55-.11-.22-.11-.33-.33-.44-.55-.11-.22-.11-.44-.11-.77 0-.22.11-.55.22-.88.11-.33.22-.66.33-.77.11-.22.22-.33.44-.441.22-.11.33 0 .55.111.22.11.33.33.44.55.11.22.11.44.11.77-.11.22-.11.55-.22.88zm3.301-.55c-.22-.11-.33-.11-.55-.11-.22 0-.33.11-.44.33l.11-.55v-.11l-.33-.22h-.11l-1.101 4.071v.11l.33.22h.11l.66-2.421c.11-.33.22-.55.44-.66.22-.11.44-.11.66 0h.11c.11 0 .22.11.22.22h.11l.22-.33v-.11l-.44-.44zm1.762 1.1l.22-.99v-.11l-.33-.22h-.11l-.22.99-.44-.22h-.11l-.11.33v.11l.44.22-.66 2.641c-.11.44-.11.77 0 .99.11.22.33.44.66.66.11.11.22.11.22.11h.11l.11-.33v-.11l-.11-.11a.859.859 0 01-.44-.44c-.11-.11-.11-.33 0-.66l.66-2.421.77.441h.11l.11-.331v-.11l-.88-.44zm5.609 1.541c-.22-.33-.44-.55-.77-.661-.33-.22-.55-.22-.88-.22-.22 0-.55.11-.66.331-.22.22-.33.44-.44.88l-.661 2.31c-.11.33-.11.771-.11 1.101 0 .33.221.66.331.99.22.33.44.55.77.66.33.22.55.22.88.22.22 0 .55-.11.66-.33.22-.22.33-.44.44-.88v-.11l-.33-.22h-.11c-.11.44-.33.66-.55.77-.22.11-.55.11-.88-.11-.33-.22-.55-.44-.66-.77-.11-.33-.11-.771 0-1.101l.66-2.31c.11-.44.33-.66.55-.77.22-.11.55-.11.88.11.33.22.55.44.66.77.11.33.11.77 0 1.1v.11l.33.11c.11-.33.11-.66.11-1.1.11-.33 0-.55-.22-.88zm2.532 3.081c-.33-.221-.66-.221-.88-.11-.33.11-.55.33-.66.55-.11.11-.11.22-.11.33 0 .11-.11.33-.11.55-.11.55-.22.88-.22 1.21 0 .33.11.77.22.99.22.331.44.551.66.771.33.11.55.22.77.22.22 0 .44-.11.66-.33v-.11l-.22-.331h-.11c-.11.111-.33.221-.44.221-.11 0-.33 0-.55-.11a1.334 1.334 0 01-.55-.551c-.11-.22-.22-.44-.11-.77 0-.11 0-.33.11-.66l2.09 1.21h.11l.11-.22c.11-.22.11-.44.11-.55.11-.44 0-.88-.11-1.32-.11-.44-.33-.77-.77-.99zm.44 2.31l-1.76-.99c.11-.22.11-.44.22-.55.11-.22.22-.33.44-.44.22-.11.33 0 .55.11.22.11.44.33.44.55.11.22.11.44.11.77v.55zm3.191-.22c-.44-.22-.77-.22-.99 0l.11-.33v-.11l-.331-.22h-.11l-1.1 4.071v.11l.33.22h.11l.66-2.641c.11-.33.22-.55.441-.66.22-.11.44-.11.66 0 .22.11.44.33.44.66.11.22.11.55 0 .88l-.66 2.641v.11l.33.22h.11l.77-2.75c.11-.441.11-.881 0-1.211-.22-.55-.44-.77-.77-.99zm3.521 2.09l-.77-.44.22-.99v-.11l-.33-.22h-.11l-.221.99-.44-.22h-.11l-.11.33v.11l.44.22-.66 2.641c-.11.44-.11.77 0 .99.11.22.33.44.66.66.11.11.22.11.22.11h.11l.111-.33v-.11l-.221-.11a.859.859 0 01-.44-.44c-.11-.11-.11-.33 0-.66l.661-2.421.77.44h.11l.11-.33v-.11zm2.09 1.101c-.33-.22-.66-.22-.88-.11-.33.11-.55.33-.66.55-.11.11-.11.22-.11.33 0 .11-.11.33-.22.55-.11.55-.22.88-.22 1.21 0 .33.11.77.22.991.11.33.44.55.66.77.33.11.55.22.77.22.22 0 .44-.11.66-.33v-.11l-.22-.33h-.11c-.11.11-.33.22-.44.22-.22 0-.33 0-.55-.11-.22-.11-.44-.33-.55-.551-.11-.22-.22-.44-.11-.77 0-.11 0-.33.11-.55l2.09 1.21h.11l.11-.22c.11-.22.11-.44.11-.55.11-.44 0-.88-.11-1.32 0-.55-.22-.88-.66-1.1zm.33 2.42l-1.76-.99c.11-.22.11-.44.22-.55.11-.22.22-.33.44-.44.22-.11.33 0 .55.11.22.11.44.33.55.55.11.22.11.44.11.77 0 .11 0 .22-.11.55zm3.192-.33c-.22-.11-.331-.11-.551-.11-.22 0-.33.11-.44.33l.11-.55v-.11l-.33-.22h-.11l-1.1 4.071v.11l.33.22h.11l.66-2.42c.11-.331.22-.551.44-.661.22-.11.44-.11.661 0h.11c.11.11.22.11.22.22h.11l.22-.33v-.11a.859.859 0 00-.44-.44zm33.447 20.025l-2.311-6.491c0-.11-.11-.22-.22-.33-.11-.11-.22-.11-.33 0-.22.11-.33.44-.22.77l2.091 5.941-4.292 2.201c-.22.11-.33.44-.22.77 0 .11.11.22.22.33.11.11.22.11.331 0l4.621-2.421c.11-.11.22-.22.22-.33.22-.11.22-.22.11-.44z" fill="#FBFBFB"/><path d="M151.948 215.431l-83.622-48.303c-1.32-.77-2.86.001-3.3 1.761l-6.932 25.967c-.44 1.76.22 3.74 1.65 4.511l83.621 48.302c1.321.77 2.861 0 3.301-1.761l6.932-25.966c.44-1.761-.33-3.741-1.65-4.511z" fill="#7D9CF0"/><path d="M73.608 187.594c.11-.441.11-.991 0-1.431-.11-.44-.44-.77-.77-.99l-1.76-.99h-.11l-1.541 5.611v.11l.33.22h.11l.66-2.42 1.32.77c.33.22.77.22 1.1.11.33-.11.55-.44.66-.99zm-.44-.22c-.11.33-.22.55-.44.66-.22.11-.44.11-.66-.11l-1.21-.66v-.11l.55-2.201 1.21.66c.22.11.44.33.55.66v1.101zm3.082 2.2c-.11-.33-.441-.66-.771-.88-.33-.22-.66-.22-.88-.22-.22.11-.44.22-.55.55v.11l.33.22h.11l.33-.33c.11 0 .33 0 .55.11.22.11.44.33.55.55.11.22.11.44 0 .77l-.11.33-.77-.44c-.44-.22-.77-.33-1.1-.22-.33.11-.55.33-.66.77-.11.441-.11.771.11 1.101.11.33.44.55.66.77.22.11.44.22.66.22.22 0 .33 0 .55-.11l-.11.33v.11l.33.22h.11l.77-2.751c.11-.44.11-.88-.11-1.21zm-.771 2.421c-.11.33-.22.44-.44.55-.22.11-.44 0-.77-.11-.22-.11-.33-.33-.44-.44a.7.7 0 010-.66c.11-.22.22-.441.44-.441s.44 0 .77.221l.66.44-.22.44zm4.4-.771l-.33-.22h-.11l-1.76 2.861.11-3.851-.11-.11-.331-.22h-.11v4.841c-.11.33-.33.44-.44.55-.11.11-.22.221-.33.221-.11 0-.22 0-.44-.111h-.11l-.11.331v.11c.22.11.44.22.55.22.11 0 .33 0 .44-.22.11-.11.33-.33.55-.661l2.42-3.741h.11zm4.071 2.311c-.22-.11-.44-.22-.66-.22-.22 0-.33.11-.55.33 0-.22-.11-.55-.22-.77-.11-.22-.33-.33-.55-.55-.22-.11-.33-.22-.55-.22-.22 0-.33 0-.44.11l.11-.33v-.11l-.33-.22h-.11l-1.101 4.071v.11l.33.22h.11l.77-2.641c.11-.33.22-.55.44-.55.22-.11.44-.11.66 0 .22.11.33.33.44.55.11.22.11.55 0 .88l-.88 2.751v.11l.33.22h.11l.77-2.641c.11-.33.22-.44.44-.55.22-.11.44-.11.66 0 .22.11.331.33.441.55.11.22.11.55 0 .881l-.66 2.64v.11l.33.22h.11l.77-2.75c.11-.441.11-.771 0-1.211-.22-.55-.44-.77-.77-.99zm3.19 1.87c-.33-.22-.66-.22-.88-.11a.993.993 0 00-.66.661c-.11.11-.11.22-.11.33 0 .11-.11.33-.11.55-.11.55-.22.88-.22 1.21 0 .33.11.66.22.99.11.33.44.551.66.771.33.11.55.22.77.22.22 0 .44-.11.66-.33v-.111l-.22-.33h-.11c-.11.11-.33.22-.44.22-.22 0-.33 0-.55-.11-.22-.11-.44-.33-.55-.55-.11-.22-.22-.44-.11-.77 0-.11 0-.33.11-.66l2.09 1.21h.11l.11-.22c.11-.22.11-.44.11-.55.11-.44 0-.88-.11-1.32-.11-.55-.33-.88-.77-1.101zm.44 2.311l-1.76-.99c.11-.22.11-.44.22-.55.11-.22.22-.33.44-.44.22-.111.33 0 .55.11.22.11.33.33.44.55.11.22.11.44.11.77v.55zm3.192-.22c-.44-.22-.77-.22-.99 0l.11-.33v-.11l-.33-.22h-.11l-1.1 4.071v.11l.33.22h.11l.66-2.641c.11-.33.22-.55.44-.66.22-.11.44-.11.66 0 .22.11.44.33.44.66.11.33.11.551 0 .881l-.66 2.64v.11l.33.22h.11l.77-2.75c.11-.44.11-.881 0-1.211-.22-.55-.44-.77-.77-.99zm2.75 1.651l.22-.991v-.11l-.33-.22h-.11l-.22.991-.44-.221h-.11l-.11.331v.11l.44.22-.66 2.64c-.11.44-.11.771 0 .991.11.22.33.44.66.66.11.11.22.11.22.11h.11l.11-.33v-.11l-.11-.11a.859.859 0 01-.44-.44c-.11-.111-.11-.331 0-.661l.66-2.42.77.44h.11l.11-.33v-.11l-.88-.44zm3.962.44l-.33-.22-.11.11-1.54 5.611.11.11.33.22.11-.11 1.43-5.611v-.11zm2.75 3.961c0-.22-.11-.44-.33-.66-.11-.221-.33-.331-.55-.551-.33-.22-.66-.22-.99-.22-.22.11-.44.33-.55.66a.703.703 0 000 .661c.11.22.11.44.33.55.11.22.33.33.55.66l.44.44c.11.11.11.22.22.33v.44c0 .22-.11.33-.33.33-.22 0-.33 0-.55-.11-.22-.11-.44-.33-.55-.55-.11-.22-.11-.44-.11-.55v-.22l-.33-.22h-.11v.11c-.11.22 0 .44 0 .66l.33.66c.11.22.33.33.66.55.33.22.66.22.99.22.33-.11.44-.33.55-.66a.7.7 0 000-.66c-.11-.22-.22-.44-.33-.55-.11-.22-.33-.33-.55-.66-.22-.22-.44-.44-.55-.66-.11-.22-.11-.33-.11-.55 0-.221.11-.331.33-.331.22 0 .33 0 .55.11.22.111.44.331.55.551.11.22.11.44.11.55v.11l.33.22h.11c-.11-.11-.11-.33-.11-.66zm2.641 1.1c-.11-.22-.33-.33-.55-.55-.33-.22-.66-.22-.99-.22-.22.11-.44.33-.55.66-.11.22-.11.44 0 .66.11.22.22.44.33.55.11.22.33.33.55.66l.44.44c.11.11.11.22.22.331v.44c0 .22-.11.33-.33.33-.22 0-.33 0-.55-.11-.22-.11-.44-.33-.55-.55-.11-.221-.11-.441-.11-.551v-.22l-.33-.22h-.11v.77l.33.661c.11.22.33.44.66.55.33.22.66.33.99.22.33-.11.44-.33.55-.66.11-.22.11-.44 0-.66-.11-.221-.22-.441-.33-.551-.11-.22-.33-.33-.55-.66-.22-.22-.44-.44-.55-.66-.11-.22-.11-.33-.11-.55 0-.22.11-.33.33-.33.11 0 .33 0 .55.11.22.11.44.33.55.55.11.22.11.44.11.55v.11l.33.22h.11a.696.696 0 000-.66c-.11-.22-.22-.44-.44-.66zm3.52 1.98l-.77 2.641c-.11.33-.22.55-.44.66-.22.11-.44.11-.66-.11-.22-.11-.44-.33-.44-.55-.11-.22-.11-.55 0-.88l.66-2.641v-.11l-.33-.22h-.11l-.77 2.751c-.11.33-.11.55 0 .77 0 .22.11.55.33.66.11.22.33.33.55.44.44.22.77.22.99 0l-.11.33v.11l.33.22h.11l1.101-4.071v-.11l-.441.11zm2.752 1.431c-.331-.22-.661-.22-.881-.11-.33.11-.55.33-.66.66-.11.11-.11.22-.11.33 0 .11-.11.33-.11.55-.11.55-.22.88-.22 1.211 0 .33.11.66.22.99.22.33.44.55.66.77.33.22.55.22.77.22.22 0 .441-.11.661-.33v-.11l-.22-.33h-.11c-.111.11-.331.22-.441.22-.11 0-.33 0-.55-.11-.22-.11-.44-.33-.55-.55-.11-.22-.22-.44-.11-.77 0-.11 0-.331.11-.661l2.091 1.211h.11l.11-.22c.11-.22.11-.44.11-.55.11-.441 0-.881-.11-1.321-.11-.55-.44-.88-.77-1.1zm.33 2.31l-1.761-.99c.11-.22.11-.44.22-.55.11-.22.22-.33.44-.44.22-.11.33 0 .55.11.221.11.331.33.441.55.11.22.11.44.11.77.11.22.11.33 0 .55zm3.41.11c-.11-.22-.33-.33-.55-.55-.33-.22-.66-.22-.99-.22-.22.11-.44.33-.55.66-.11.22-.11.44 0 .66.11.22.11.441.33.551.11.22.33.33.55.66l.44.44c.11.11.11.22.22.33 0 .11.11.22 0 .44 0 .22-.22.33-.33.33-.22 0-.33 0-.55-.11-.22-.11-.44-.33-.55-.55-.11-.22-.11-.44-.11-.55v-.22l-.331-.22h-.11v.77l.331.66c.11.22.33.33.66.55.33.22.66.22.99.22.33-.11.44-.33.55-.66.11-.22.11-.44 0-.66-.11-.22-.22-.44-.33-.55-.11-.22-.33-.33-.55-.66-.22-.22-.44-.44-.55-.661-.11-.22-.11-.33-.11-.55 0-.22.11-.33.33-.33.11 0 .33 0 .55.11.22.11.44.33.55.55.11.22.11.441.11.551v.11l.33.22h.11c.11-.22.11-.44 0-.661-.11-.22-.22-.44-.44-.66zm33.009 19.585l-2.31-6.491c0-.11-.11-.22-.221-.33-.11-.11-.22-.11-.33 0-.22.11-.33.44-.22.77l2.091 5.941-4.291 2.201c-.22.11-.33.44-.22.77 0 .11.11.22.22.33.11.11.22.11.33 0l4.621-2.42c.11 0 .22-.11.22-.33.22-.111.22-.221.11-.441z" fill="#FBFBFB"/><path d="M142.266 251.52l-83.621-48.302c-1.32-.771-2.861 0-3.301 1.76l-6.932 25.967c-.44 1.76.22 3.741 1.65 4.511l83.622 48.302c1.32.77 2.86 0 3.301-1.76l6.931-25.967c.44-1.76-.22-3.741-1.65-4.511z" fill="#1E959B"/><path d="M62.826 224.233l-1.65-.88v-.11l.55-2.091 2.42 1.43v-.11l.11-.33v-.11l-2.86-1.65-.11.11-1.43 5.611v.11l.33.22h.11l.66-2.64 1.76.99.11-.44v-.11zm3.081-1.211l-3.08 4.842v.11l.33.22h.11l.55-.88 1.98 1.1v1.21l.11.11.33.22h.11l.11-6.491-.11-.11-.44-.331zm-.11 4.732l-1.76-.991 1.76-2.86v3.851zm4.843-1.871c-.22-.33-.44-.55-.771-.66-.33-.22-.55-.22-.88-.22-.22 0-.55.11-.66.33-.22.22-.33.55-.44.88l-.55 2.201c-.11.55-.11.99 0 1.43.11.44.44.88.77 1.1l-.22.771v.11l.33.33h.11l.22-.77c.44.11.77.11 1.1-.11.33-.221.55-.551.66-.991l.55-2.2c.11-.33.11-.77.11-1.101-.11-.44-.22-.77-.33-1.1zm-.22 1.761l-.551 2.2c-.11.44-.33.66-.55.77-.22.11-.55.11-.88-.11-.33-.22-.55-.44-.66-.77-.11-.33-.11-.77 0-1.1l.55-2.201c.11-.44.33-.66.55-.77.22-.11.55-.11.88.11.33.22.55.44.66.77.11.33.11.771 0 1.101zm65.905 38.509l-2.311-6.491c0-.11-.11-.22-.22-.33-.11-.11-.22-.11-.33 0-.22.11-.33.44-.22.77l2.091 5.941-4.292 2.201c-.22.11-.33.44-.22.77 0 .11.11.22.22.33.111.11.221.11.331 0l4.621-2.421c.11-.11.22-.22.22-.33.11-.11.11-.22.11-.44z" fill="#FBFBFB"/><path opacity=".2" d="M298.504 111.454L197.059 52.809 319.74 426.354c5.171.99 10.122-2.641 11.883-9.132l30.147-112.889-63.266-192.879zm-237.99 29.598l55.234 168.232 82.741 47.752L90.551 28.603 60.514 141.052z" fill="#fff"/><path d="M0 389.935v-11.443h7.042c.55-.44 1.21-.77 1.87-1.21l64.807-37.19c11.773-6.821 30.917-6.821 42.58 0l97.045 56.334c.66.331 1.32.771 1.871 1.211h6.931v11.553c-.22 4.401-3.081 8.692-8.912 11.993l-64.806 37.189c-11.773 6.822-30.918 6.822-42.581 0L8.802 401.928C3.081 398.627.11 394.336 0 389.935z" fill="#B6BBED"/><path d="M0 388.174v-11.442h7.042c.55-.441 1.21-.771 1.87-1.211l64.807-37.079c11.773-6.822 30.917-6.822 42.58 0l97.045 56.334c.66.33 1.32.77 1.871 1.21h6.931v11.553c-.22 4.401-3.081 8.693-8.912 11.993l-64.806 37.08c-11.773 6.822-30.918 6.822-42.581 0L8.802 400.277C3.081 396.867.11 392.576 0 388.174z" fill="url(#paint2_linear_139:1541)"/><path d="M8.912 375.521l64.807-37.079c11.773-6.822 30.917-6.822 42.58 0l97.045 56.334c.66.33 1.32.77 1.871 1.21h6.931v2.091c-.22 4.401-3.081 8.692-8.912 11.993l-64.806 37.189c-11.773 6.822-30.918 6.822-42.581 0L8.802 390.815C3.081 387.514.22 383.223 0 378.822v-2.2h7.042c.55-.331 1.21-.661 1.87-1.101z" fill="#fff"/><path d="M8.911 364.408l64.807-37.189c11.773-6.822 30.918-6.822 42.581 0l97.044 56.334c11.773 6.822 11.663 17.825-.11 24.646l-64.806 37.19c-11.773 6.822-30.918 6.822-42.581 0L8.801 389.055c-11.773-6.822-11.663-17.825.11-24.647z" fill="url(#paint3_linear_139:1541)"/><path d="M121.47 394.666H18.374l-9.572-5.611c-9.572-5.502-11.223-13.864-5.281-20.466h118.06v26.077h-.111z" fill="url(#paint4_linear_139:1541)"/><path d="M92.534 372.661s-.66 6.601-.77 8.142c-.11 1.54-.11 2.42.55 2.97.99.771 3.96 2.421 5.831 2.421 1.871.11 3.741-.99 5.612-1.87 1.87-.881 3.63-2.091 5.391-2.531 1.76-.44 3.301-.22 5.171-1.761 1.871-1.54 4.951-5.941 5.502-6.491.55-.55.33-1.541-.22-2.201-.551-.66-3.081-1.87-3.851-1.98-.771-.11-4.622 1.32-5.612 1.43-.99.11-5.721.22-7.592.11-1.65 0-10.012 1.761-10.012 1.761z" fill="#5C362F"/><path d="M92.534 371.45s-.66 6.602-.77 8.142c-.11 1.541-.11 2.421.55 2.971.99.77 3.96 2.421 5.831 2.421 1.871.11 3.741-.991 5.612-1.871 1.87-.88 3.63-2.09 5.391-2.53 1.76-.441 3.301-.221 5.171-1.761 1.871-1.54 4.731-5.611 5.172-6.161.55-.551.33-1.541-.22-2.201-.551-.66-3.081-1.871-3.851-1.981-.771-.11-4.292.881-5.392 1.101-.99.11-5.721.22-7.592.11-1.54 0-9.902 1.76-9.902 1.76z" fill="#7D4A41"/><path d="M129.723 257.901s-11.443 46.102-12.983 53.254c-1.431 7.152-7.592 33.999-10.123 44.121-2.531 10.123-1.87 13.534-1.87 14.414 0 .99.44 2.751.33 3.301-.11.55-2.641 3.741-5.722 3.411-3.19-.441-5.721-1.211-7.372-2.971 0 0 1.76-6.492 1.87-7.812.11-1.321 1.321-34.439 1.981-39.94.99-7.372 5.392-13.424 5.832-19.145.44-5.722.33-28.938 0-33.559-.33-4.621-.55-12.543 1.76-20.465l26.517 3.301-.22 2.09z" fill="#1F2336"/><path d="M111.899 278.036L113 327.879l6.051-26.076-7.152-23.767z" fill="#161926"/><path d="M115.86 381.023s-.66 6.601-.77 8.142c-.11 1.54-.11 2.42.55 2.97.99.771 3.961 2.421 5.831 2.421 1.871.11 3.741-.99 5.612-1.87 1.87-.881 3.631-2.091 5.391-2.531 1.761-.44 3.301-.22 5.171-1.761 1.871-1.54 4.952-5.941 5.502-6.491.55-.55.33-1.541-.22-2.201-.55-.66-3.081-1.87-3.851-1.98-.77-.11-4.621 1.21-5.612 1.43-.99.11-5.721.22-7.592.11-1.76.11-10.012 1.761-10.012 1.761z" fill="#5C362F"/><path d="M115.86 379.922s-.66 6.602-.77 8.142c-.11 1.541-.11 2.421.55 2.971.99.77 3.961 2.421 5.831 2.421 1.871.11 3.741-.99 5.612-1.871 1.87-.88 3.631-2.09 5.391-2.53 1.761-.44 3.301-.22 5.171-1.761 1.871-1.54 4.732-5.611 5.172-6.161.55-.55.33-1.541-.22-2.201-.55-.66-3.081-1.87-3.851-1.98-.771-.11-4.401.88-5.392 1.1-.99.11-5.721.22-7.592.11-1.65 0-9.902 1.76-9.902 1.76z" fill="#7D4A41"/><path d="M138.305 262.523s-3.08 48.082-3.631 55.344c-.55 7.262-5.061 34.549-6.271 45.001-1.21 10.343-.99 12.873-.99 13.754.11.99.77 2.64.77 3.19-.11.551-2.091 4.072-5.282 4.072-3.19 0-5.831-.551-7.702-2.091 0 0 .881-6.602.881-7.922 0-1.32-1.431-33.779-1.211-39.28.22-5.501 1.981-14.524 1.761-20.245-.33-5.722-3.301-28.717-4.181-33.339-.88-4.511-2.091-12.433-.77-20.575h26.736v2.091h-.11z" fill="#1F2336"/><path d="M138.966 259.772v3.961c-2.861 2.641-9.903 3.631-20.795.77-13.424-3.411-16.065-7.922-16.065-7.922l.661-3.411 36.199 6.602z" fill="#AD6A43"/><path d="M131.813 260.432h-2.42v6.492h2.42v-6.492zm-17.493-2.31h-2.421v6.491h2.421v-6.491zm-9.573-4.292h-1.54v6.492h1.54v-6.492z" fill="#1F2336"/><path d="M134.235 162.507s2.75 6.822 3.301 9.023c.44 2.2 0 3.41.33 5.281.33 1.87.33 2.861 0 5.281-.33 2.421-.77 3.851-.881 5.502-.11 1.65-.11 2.2-1.1 2.53-.99.33-2.53.11-4.951-.22 0 0-.22 2.971-.22 6.712-11.663.66-14.854-3.301-14.854-3.301s.99-5.171.66-6.822c-.44-1.65-4.621-7.371-4.951-12.103-.33-4.731 1.43-11.553 5.942-13.533 5.171-2.421 12.983-2.531 16.724 1.65z" fill="#FFDEC9"/><path d="M132.693 170.319v-9.132c.55.33 1.101.77 1.541 1.32l1.76 4.621c-.77.991-1.98 2.311-3.301 3.191z" fill="url(#paint5_linear_139:1541)"/><path d="M115.42 184.183h12.543s2.091 2.971 5.942 4.841c.44.55-.33.44-1.431.44-1.1-.11-1.76-.11-2.86-.44 0 0-.881 3.851-1.211 7.592-9.902.11-12.653-3.411-12.653-3.411s.99-5.171.66-6.822c-.11-.55-.44-1.32-.99-2.2z" fill="url(#paint6_linear_139:1541)"/><path d="M131.373 180.882s.991-.11.991-1.21v-4.842c0-.33.33-.77.44-.99.11-.22.77-.77.77-.99 0-.22-.66-2.421-.66-2.531 0-.11 1.43-1.76 2.31-3.961.991-2.2 1.321-4.291 1.431-6.381-1.431-.33-3.521-.22-3.521-.22.77-.771.33-2.641.33-2.641s-3.191.99-7.262.77c-4.071-.22-7.482-.99-10.783.66-3.3 1.651-4.511 4.511-4.511 10.233-1.76 3.301-1.76 6.602-1.43 6.932.33.33 5.501 7.922 7.262 11.553 2.42 1.32 7.922 1.1 9.352 1.1.55-1.43 1.981-4.071 1.981-4.071s-.881-.88-1.321-2.201c-.44-1.32-.22-2.75 1.211-3.411 1.43-.66 2.2-.11 2.31.11.55.881 1.1 2.091 1.1 2.091z" fill="#7D4A41"/><path d="M131.593 195.956s9.352 8.802 10.233 10.012c.99 1.211 1.21 1.541 1.32 2.971.11 1.43-4.291 36.749-4.401 38.95-.22 2.2 2.2 11.443 1.98 11.773-.22.44-1.32 1.76-3.301 2.64-1.98.881-9.132 2.091-19.474-.77-10.343-2.86-14.524-5.721-15.404-7.041-.771-1.211-1.541-5.172-1.211-6.162.33-1.1 2.861-7.262 2.971-8.142.11-.99-1.65-24.976-1.98-29.598-.331-4.621.22-14.303 1.21-16.724.99-2.42 4.951-7.372 12.323-5.501 0-.11 10.893 4.951 15.734 7.592z" fill="#FFAC6B"/><path d="M132.584 217.301l8.802 7.702c-.88 7.482-1.871 15.514-2.311 19.805-6.821-11.553-6.491-27.507-6.491-27.507z" fill="#F28350"/><path d="M114.649 189.024s.88-2.531.99-2.641c.11-.11.771-.33 1.761 0 1.1.331 3.741 1.651 7.592 4.182 3.301 2.09 6.491 5.281 6.491 5.281s-3.851-.44-8.032-1.981c-4.291-1.54-8.912-3.741-8.912-3.961 0-.11.11-.88.11-.88z" fill="#FFAC6B"/><path d="M160.862 215.541s.881-9.243.991-9.793c.11-.55.55-1.65 1.21-2.64.66-.991 1.98-3.081 2.861-4.622.88-1.54 1.87-3.851 2.09-3.741.22.111 1.1.991.66 2.861-.44 1.871-1.1 2.531-1.43 3.301-.44.77-1.21 2.641-1.21 2.641s.88-.22 1.21-.11c.44.11 3.851 1.54 4.181 1.87.33.33.44.77.44 1.651.11.88 0 2.75 0 3.41 0 .661.44.991.22 1.101-.22.11-1.32.44-1.54-.55-.33 1.76-.11 3.41-.77 4.181-.661.77-3.521 2.97-3.521 2.97l-5.392-2.53z" fill="#FFDEC9"/><path d="M170.874 206.188c.441.44 1.211 1.651 1.211 1.761v-1.101c-.11-.88-.22-1.32-.44-1.65-.33-.33-3.741-1.76-4.181-1.87-.441-.11-1.211.11-1.211.11s-1.21.88-1.21 1.1c0 .22 3.521 1.43 4.071 1.65.33.11 1.32-.44 1.76 0z" fill="url(#paint7_linear_139:1541)"/><path d="M170.545 210.92s-.33-2.091-.33-2.421c0-.33.33-.77.33-.77s.44.33.44.88-.22 2.751-.22 2.751l-.22-.44z" fill="url(#paint8_linear_139:1541)"/><path d="M159.101 217.521s.99-1.87 1.1-2.2c.11-.33.44-.55.88-.44.44.11 3.301 1.1 4.511 1.87 1.101.88 1.431 1.1 1.431 1.43 0 .33-.991 2.971-.991 2.971l-6.931-3.631z" fill="#FFAC6B"/><path d="M142.377 206.959c-1.981-1.211-8.582 0-9.573 7.481-.99 7.372 3.191 13.754 6.492 18.925 3.301 5.172 5.611 7.922 7.042 9.243 1.43 1.32 6.601 2.86 8.362 2.31 1.76-.66 3.741-4.401 4.841-6.932 1.1-2.53 6.602-15.073 6.822-15.624.11-.44.11-1.1 0-1.54-.11-.44-2.751-2.971-7.152-3.851 0 0-.88.22-1.1.55-.22.33-.11.88-.33 1.541-.991 2.2-5.392 9.682-5.392 9.682s-7.262-17.164-8.142-18.925c-.88-1.76-.99-2.31-1.87-2.86z" fill="#FFAC6B"/><path d="M32.899 167.789l5.611.77c1.21 1.98 2.75 3.851 4.401 5.501l.88 7.262 5.062 2.971.99-6.162c1.65.33 3.19.22 4.401-.44l5.612 5.611 2.53-3.63-4.62-6.932c.22-.88.33-1.761.33-2.751s-.11-1.98-.33-3.081l4.62-1.65-2.53-6.492-5.612-.77c-1.21-1.98-2.75-3.851-4.4-5.501l-.881-7.262-5.061-2.971-.99 6.162c-1.651-.33-3.081-.22-4.402.44l-5.611-5.612-2.53 3.631 4.62 6.932c-.22.88-.33 1.76-.33 2.751 0 .99.11 1.98.33 3.08l-4.62 1.651 2.53 6.492zm13.533-10.123c2.64 1.54 4.731 5.171 4.731 8.252 0 3.081-2.2 4.291-4.84 2.751-2.642-1.541-4.732-5.282-4.732-8.252 0-2.971 2.2-4.291 4.841-2.751z" fill="#1E959B"/><path d="M67.227 210.039c0-.99-.11-1.98-.33-3.08l4.621-1.651-2.53-6.491-5.612-.771a24.195 24.195 0 00-4.401-5.501l-.88-7.262-5.062-2.971-.99 6.162c-1.65-.33-3.19-.22-4.4.44l-5.612-5.611-2.531 3.631 4.621 6.931c-.22.881-.33 1.761-.33 2.751s.11 2.091.33 3.081l-4.621 1.65 2.53 6.492 5.612.77c1.21 1.981 2.75 3.961 4.401 5.501l.88 7.262 5.062 2.971.99-6.162c1.65.331 3.08.221 4.401-.44l5.611 5.612 2.531-3.631-4.621-6.932c.22-.88.33-1.76.33-2.751zm-11.663-1.32c-2.64-1.54-4.731-5.171-4.731-8.252 0-3.081 2.2-4.291 4.841-2.751 2.64 1.541 4.731 5.172 4.731 8.252 0 3.081-2.2 4.291-4.84 2.751z" fill="#353B47"/><path d="M36.42 186.053c.22-.88.33-1.76.33-2.751 0-.99-.11-1.98-.22-3.08l4.62-1.651-2.53-6.491-5.611-.771c-1.21-1.98-2.751-3.961-4.402-5.501l-.88-7.262-5.061-2.971-.99 6.162c-1.65-.33-3.191-.22-4.401.44l-5.612-5.611-2.53 3.631 4.62 6.931c-.22.881-.33 1.761-.33 2.751s.11 2.091.22 3.081l-4.62 1.65 2.53 6.492 5.611.77c1.21 1.981 2.751 3.961 4.402 5.502l.88 7.261 5.061 2.971.99-6.161c1.65.33 3.191.22 4.401-.441l5.612 5.612 2.53-3.631-4.62-6.932zm-11.334-3.961c-2.64-1.54-4.73-5.171-4.73-8.252 0-3.081 2.2-4.291 4.84-2.751 2.641 1.541 4.732 5.282 4.732 8.252-.11 3.081-2.2 4.292-4.841 2.751z" fill="#055656"/><path d="M421.297 154.145l-94.514-54.574c-3.081-1.76-5.611-.33-5.611 3.191l-.11 46.322c0 3.521 2.53 7.922 5.611 9.682l4.291 2.531v7.262c0 1.98.77 3.521 1.871 4.181.55.33 1.21.44 1.87.22l11.553-2.861 74.819 43.241c3.081 1.761 5.611.33 5.611-3.191l.11-46.321c.11-3.631-2.42-7.922-5.501-9.683z" fill="#353B47"/><path d="M393.24 182.752l-58.865-33.998c-.771-.44-1.431-.11-1.431.88 0 .88.66 2.091 1.431 2.531l58.865 33.998c.77.44 1.43.11 1.43-.88s-.66-2.091-1.43-2.531zm20.245.551l-79-45.662c-.77-.44-1.43-.11-1.43.88 0 .88.66 2.091 1.43 2.531l79 45.661c.77.441 1.43.11 1.43-.88s-.66-2.09-1.43-2.53zm0-11.113l-79-45.662c-.77-.44-1.43-.11-1.43.88 0 .881.66 2.091 1.43 2.531l79 45.662c.77.44 1.43.11 1.43-.881 0-.88-.66-2.09-1.43-2.53zm-79.001-53.364l79 45.662c.77.44 1.43.11 1.43-.88 0-.881-.66-2.091-1.43-2.531l-79-45.552c-.77-.44-1.43-.11-1.43.881 0 .88.66 1.98 1.43 2.42z" fill="#fff"/><path d="M374.425 358.137c2.641 1.54 4.731 5.171 4.731 8.142l-.11 21.565c0 2.971-2.09 4.181-4.731 2.641l-79.11-45.662c-2.641-1.54-4.731-5.171-4.731-8.142l.11-21.565c0-2.971 2.09-4.181 4.731-2.641l79.11 45.662z" fill="#1E959B"/><path d="M309.838 335.031l-.991-.66-.99-.66-1.54-.991-.55-1.98-.33-1.321-.331-1.32c-.11-.55-.33-.88-.55-.99-.22-.11-.44 0-.55.33l-.33.88-.33.88-.55 1.321-1.541-.77-.99-.441-.99-.44c-.88-.44-.99.11-.33 1.101l.77 1.21 1.871 2.971-.331 1.54-.22.99-.22.991c-.11.55 0 1.1.44 1.21.11.11.331.11.551.11l.88-.11.88-.11 1.32-.11 1.321 1.65.88 1.101.88 1.1c.22.33.44.44.55.55.33.22.55-.11.44-.77l-.22-1.211-.22-1.21-.33-1.87 1.871-.771.77-.33c0-.66-.11-1.32-.99-1.87zm15.184 8.802l-.991-.66-.99-.66-1.54-.99-.55-1.981-.331-1.32-.44-1.321c-.11-.55-.33-.88-.55-.99-.22-.11-.44 0-.55.33l-.33.88-.44.881-.55 1.32-1.541-.77-.99-.44-.99-.44c-.88-.441-.99.11-.33 1.1l.77 1.21 1.87 2.971-.33 1.54-.22.991-.22.99c-.11.55 0 1.1.44 1.21.11.11.33.11.55.11l.881-.11.88-.11 1.32-.11 1.321 1.65.88 1.101.88 1.1c.22.33.44.44.55.55.33.22.55-.11.44-.77l-.22-1.21-.22-1.211-.33-1.87 1.871-.77.77-.33c.22-.661.11-1.321-.77-1.871zm15.294 8.692l-.991-.66-.99-.66-1.54-.99-.551-1.981-.33-1.32-.44-1.32c-.11-.55-.33-.881-.55-.991-.22-.11-.44 0-.55.33l-.33.881-.44.88-.55 1.32-1.541-.77-.99-.44-.99-.44c-.88-.44-.99.11-.33 1.1l.77 1.21 1.87 2.971-.33 1.541-.22.99-.22.99c-.11.55 0 1.1.44 1.21.11.11.33.11.55.11l.881-.11.88-.11 1.32-.11 1.321 1.651.88 1.1.88 1.1c.22.33.44.44.55.55.33.22.55-.11.44-.77l-.22-1.21-.22-1.21-.33-1.871 1.871-.77.77-.33c.22-.55 0-1.21-.77-1.871zm15.183 8.803l-.99-.661-.99-.66-1.54-.99-.551-1.98-.33-1.321-.33-1.32c-.11-.55-.33-.88-.55-.99-.22-.11-.44 0-.55.33l-.33.88-.44.88-.55 1.32-1.541-.77-.99-.44-.99-.44c-.88-.44-.991.11-.33 1.1l.77 1.211 1.87 2.97-.33 1.541-.22.99-.22.99c-.11.55 0 1.101.44 1.211.11.11.33.11.55.11l.881-.11.88-.11 1.32-.11 1.321 1.65.88 1.1.88 1.101c.22.33.44.44.55.55.33.22.55-.11.44-.771l-.22-1.21-.22-1.21-.33-1.871 1.87-.77.771-.33c.11-.55-.11-1.32-.881-1.87zm15.185 8.802l-.991-.66-.99-.66-1.54-.991-.55-1.98-.33-1.321-.33-1.32c-.111-.55-.331-.88-.551-.99-.22-.11-.44 0-.55.33l-.44.77-.44.88-.55 1.321-1.541-.77-.99-.441-.99-.44c-.88-.44-.99.11-.33 1.101l.77 1.21 1.871 2.971-.331 1.54-.22.99-.22.991c-.11.55 0 1.1.44 1.21.11.11.331.11.551.11l.88-.11.88-.11 1.32-.11 1.321 1.65.88 1.1.88 1.101c.22.33.44.44.55.55.33.22.55-.11.44-.77l-.22-1.211-.22-1.21-.33-1.87 1.871-.771.77-.33c.22-.55.11-1.21-.77-1.76z" fill="#fff"/><path d="M88.023 90.989l-42.47-24.536c-1.21-.66-2.311-.77-3.081-.33-1.21.66-2.42 1.43-3.631 2.09.77-.44 1.87-.44 3.08.33L84.393 93.08c2.421 1.43 4.401 4.732 4.291 7.482v40.051c0 1.32-.44 2.31-1.32 2.75 1.21-.66 2.42-1.43 3.631-2.09.77-.44 1.32-1.431 1.32-2.751v-40.05c.11-2.75-1.87-6.052-4.29-7.482z" fill="#1E273B"/><path d="M84.391 93.08c2.421 1.43 4.401 4.73 4.291 7.481v40.051c0 2.75-1.98 3.851-4.4 2.53L41.81 118.606c-2.421-1.43-4.291-4.731-4.291-7.482v-40.05c0-2.75 1.98-3.851 4.4-2.53L84.39 93.079z" fill="#0F1521"/><path d="M87.472 143.472c.44-.33.99-.55 1.43-.88.33-.55.44-1.1.44-1.98v-40.051c0-2.75-1.98-6.161-4.29-7.482l-42.47-24.536c-.881-.44-1.651-.66-2.312-.55.55.11.99.22 1.65.55L84.393 93.08c2.42 1.43 4.4 4.732 4.29 7.482v40.051c.11 1.43-.44 2.42-1.21 2.86z" fill="#2C3957"/><path d="M51.603 108.373l-6.162-3.63c-.11 0-.11-.11 0-.11l.44-.331c1.871-1.54 3.081-2.53 3.742-3.08 1.21-1.101 1.87-2.31 1.87-3.631 0-.77-.11-1.54-.44-2.42-.33-.771-.77-1.541-1.43-2.201-.66-.66-1.32-1.32-2.091-1.76-1.1-.661-2.09-.881-2.75-.551-.77.33-1.101.99-1.101 2.2v.88c0 .11.11.22.22.33l.99.551c.11.11.22 0 .22-.11v-.66c0-.77.22-1.32.66-1.54.44-.22 1.1-.11 1.871.33.77.44 1.43 1.1 1.87 1.76.44.77.66 1.54.66 2.31 0 .99-.66 2.091-1.87 3.081l-1.65 1.431c-1.54 1.32-2.64 2.2-3.081 2.53-.11 0-.11.11-.11.22v.991c0 .11.11.22.22.33l7.922 4.511c.11.11.22 0 .22-.11v-.99c0-.11-.11-.221-.22-.331zm10.892 1.871l-.88-.44-.11-.11v-3.631c0-.11-.11-.22-.22-.33l-.99-.55c-.11-.11-.22 0-.22.11v3.631c0 .11 0 .11-.11 0l-4.402-2.531-.11-.11v-.11l3.961-7.372v-.22c0-.11-.11-.11-.11-.11l-1.1-.66c-.11-.11-.22 0-.22 0l-4.071 7.702c0 .11-.11.11-.11.22v.88c0 .11.11.22.22.33l5.941 3.411.11.11v4.071c0 .11.11.22.22.33l.99.55c.11.11.22 0 .22-.11v-4.071c0-.11 0-.11.11 0l.88.44c.111.11.221 0 .221-.11v-.99c-.11-.11-.11-.22-.22-.33zm6.713-6.272c-.11-.11-.22 0-.22 0l-4.401 12.984c0 .11 0 .22.11.33l.99.55c.11.11.22.11.22 0l4.401-12.983c0-.11 0-.22-.11-.33l-.99-.551zm11.332 6.602l-7.811-4.511c-.11-.11-.22 0-.22.11v2.311c0 .11.11.22.22.33l.77.44c.11.11.22 0 .22-.11v-1.101c0-.11 0-.11.11 0l5.392 3.081.11.11v.11l-4.622 11.443v.22c0 .11.11.11.11.11l1.1.66c.11.11.22.11.22 0l4.622-11.553v-1.32c0-.11-.11-.22-.22-.33z" fill="#1E959B"/><path d="M362.212 244.918c-11.773-6.822-21.346-1.32-21.346 12.213 0 13.534 9.463 30.038 21.236 36.86 11.773 6.821 21.345 1.32 21.345-12.214.11-13.533-9.462-30.037-21.235-36.859z" fill="#F05670"/><path d="M362.211 264.283c-6.162-3.521-11.003-4.071-11.003-.99v2.86c.11 1.211.88 2.531 1.76 3.081l3.631 2.091c1.321.77 2.201-.33 1.541-1.981-.44-1.1-.11-2.09.66-2.2.88-.11 2.09.33 3.411 1.1 1.21.77 2.53 1.76 3.301 2.751.77.88.99 2.2.66 2.97-.66.881.22 2.971 1.54 3.741l3.631 2.091c.99.44 1.761 0 1.761-.99v-2.861c0-2.861-4.732-8.032-10.893-11.663z" fill="#fff"/><defs><linearGradient id="paint0_linear_139:1541" x1="385.224" y1="216.808" x2="220.044" y2="312.782" gradientUnits="userSpaceOnUse"><stop stop-color="#F7FAFF"/><stop offset="1" stop-color="#C1C7D6"/></linearGradient><linearGradient id="paint1_linear_139:1541" x1="94.874" y1="115.748" x2="383.831" y2="115.748" gradientUnits="userSpaceOnUse"><stop stop-color="#C7E1F8"/><stop offset="1" stop-color="#90AFF8"/></linearGradient><linearGradient id="paint2_linear_139:1541" x1="222.092" y1="397.5" x2=".008" y2="397.5" gradientUnits="userSpaceOnUse"><stop stop-color="#D9DCF7"/><stop offset="1" stop-color="#CED2F7"/></linearGradient><linearGradient id="paint3_linear_139:1541" x1="156.565" y1="409.042" x2="7.671" y2="334.753" gradientUnits="userSpaceOnUse"><stop stop-color="#F7FAFF"/><stop offset="1" stop-color="#E6ECFF"/></linearGradient><linearGradient id="paint4_linear_139:1541" x1="5.335" y1="381.644" x2="59.093" y2="381.644" gradientUnits="userSpaceOnUse"><stop stop-color="#F7FAFF"/><stop offset="1" stop-color="#E6ECFF"/></linearGradient><linearGradient id="paint5_linear_139:1541" x1="134.896" y1="163.471" x2="132.244" y2="166.631" gradientUnits="userSpaceOnUse"><stop stop-color="#FFD3BF"/><stop offset="1" stop-color="#FFB7A8"/></linearGradient><linearGradient id="paint6_linear_139:1541" x1="124.103" y1="191.496" x2="125.798" y2="178.952" gradientUnits="userSpaceOnUse"><stop stop-color="#FFD3BF"/><stop offset="1" stop-color="#FFB7A8"/></linearGradient><linearGradient id="paint7_linear_139:1541" x1="165.615" y1="207.449" x2="171.717" y2="204.292" gradientUnits="userSpaceOnUse"><stop stop-color="#FFD3BF"/><stop offset="1" stop-color="#FFB7A8"/></linearGradient><linearGradient id="paint8_linear_139:1541" x1="169.881" y1="209.952" x2="171.546" y2="209.09" gradientUnits="userSpaceOnUse"><stop stop-color="#FFD3BF"/><stop offset="1" stop-color="#FFB7A8"/></linearGradient></defs></svg>